<svg width="30" height="30" viewBox="0 0 30 30" fill="none" xmlns="http://www.w3.org/2000/svg">
<path d="M8.64609 25.5825H21.4289C22.4788 25.5824 23.4856 25.1549 24.228 24.394C24.9703 23.6331 25.3874 22.601 25.3875 21.5249V10.6688C25.3875 10.4649 25.3085 10.2693 25.1678 10.1252C25.0272 9.98099 24.8364 9.9 24.6375 9.9H21.1875V7.60605C21.1874 6.58338 20.7911 5.60263 20.0856 4.87949C19.3801 4.15636 18.4232 3.75007 17.4255 3.75H12.6495C11.6518 3.75007 10.6949 4.15636 9.98944 4.87949C9.28395 5.60263 8.88757 6.58338 8.8875 7.60605V9.9H5.4375C5.23859 9.9 5.04782 9.98099 4.90717 10.1252C4.76652 10.2693 4.6875 10.4649 4.6875 10.6688V21.5249C4.68758 22.601 5.10467 23.6331 5.84703 24.394C6.5894 25.1549 7.59623 25.5824 8.64609 25.5825ZM10.3875 7.60605C10.3875 6.99113 10.6258 6.40141 11.05 5.9666C11.4742 5.53178 12.0496 5.28751 12.6495 5.2875H17.4255C18.0254 5.28751 18.6008 5.53178 19.025 5.9666C19.4492 6.40141 19.6875 6.99113 19.6875 7.60605V9.9H10.3875V7.60605ZM6.1875 11.4375H8.8875V13.7438C8.8875 13.9476 8.96652 14.1432 9.10717 14.2873C9.24782 14.4315 9.43859 14.5125 9.6375 14.5125C9.83641 14.5125 10.0272 14.4315 10.1678 14.2873C10.3085 14.1432 10.3875 13.9476 10.3875 13.7438V11.4375H19.6875V13.7438C19.6875 13.9476 19.7665 14.1432 19.9072 14.2873C20.0478 14.4315 20.2386 14.5125 20.4375 14.5125C20.6364 14.5125 20.8272 14.4315 20.9678 14.2873C21.1085 14.1432 21.1875 13.9476 21.1875 13.7438V11.4375H23.8875V21.5249C23.8875 22.1933 23.6285 22.8343 23.1674 23.3069C22.7063 23.7795 22.081 24.045 21.4289 24.045H8.64609C7.99404 24.045 7.36869 23.7795 6.90762 23.3069C6.44654 22.8343 6.18751 22.1933 6.1875 21.5249V11.4375Z" fill="white"/>
</svg>
