<svg width="27" height="26" viewBox="0 0 27 26" fill="none" xmlns="http://www.w3.org/2000/svg">
<path d="M4.375 6.5C4.375 6.94873 4.73877 7.3125 5.1875 7.3125H21.4375C21.8862 7.3125 22.25 6.94873 22.25 6.5C22.25 6.05127 21.8862 5.6875 21.4375 5.6875H5.1875C4.73877 5.6875 4.375 6.05127 4.375 6.5Z" fill="#071A33"/>
<path d="M13.3125 13C13.3125 13.4487 13.6763 13.8125 14.125 13.8125H21.4375C21.8862 13.8125 22.25 13.4487 22.25 13C22.25 12.5513 21.8862 12.1875 21.4375 12.1875H14.125C13.6763 12.1875 13.3125 12.5513 13.3125 13Z" fill="#071A33"/>
<path d="M4.375 19.5C4.375 19.9487 4.73877 20.3125 5.1875 20.3125H21.4375C21.8862 20.3125 22.25 19.9487 22.25 19.5C22.25 19.0513 21.8862 18.6875 21.4375 18.6875H5.1875C4.73877 18.6875 4.375 19.0513 4.375 19.5Z" fill="#071A33"/>
</svg>
