<svg width="33" height="32" viewBox="0 0 33 32" fill="none" xmlns="http://www.w3.org/2000/svg">
<path d="M10.9697 8.5C10.9697 9.32843 10.2982 10 9.46973 10C8.6413 10 7.96973 9.32843 7.96973 8.5C7.96973 7.67157 8.6413 7 9.46973 7C10.2982 7 10.9697 7.67157 10.9697 8.5Z" fill="#071A33"/>
<path d="M26.9697 8.5C26.9697 9.32843 26.2982 10 25.4697 10C24.6413 10 23.9697 9.32843 23.9697 8.5C23.9697 7.67157 24.6413 7 25.4697 7C26.2982 7 26.9697 7.67157 26.9697 8.5Z" fill="#071A33"/>
<path d="M18.9697 8.5C18.9697 9.32843 18.2982 10 17.4697 10C16.6413 10 15.9697 9.32843 15.9697 8.5C15.9697 7.67157 16.6413 7 17.4697 7C18.2982 7 18.9697 7.67157 18.9697 8.5Z" fill="#071A33"/>
<path d="M10.9697 16.5C10.9697 17.3284 10.2982 18 9.46973 18C8.6413 18 7.96973 17.3284 7.96973 16.5C7.96973 15.6716 8.6413 15 9.46973 15C10.2982 15 10.9697 15.6716 10.9697 16.5Z" fill="#071A33"/>
<path d="M26.9697 16.5C26.9697 17.3284 26.2982 18 25.4697 18C24.6413 18 23.9697 17.3284 23.9697 16.5C23.9697 15.6716 24.6413 15 25.4697 15C26.2982 15 26.9697 15.6716 26.9697 16.5Z" fill="#071A33"/>
<path d="M18.9697 16.5C18.9697 17.3284 18.2982 18 17.4697 18C16.6413 18 15.9697 17.3284 15.9697 16.5C15.9697 15.6716 16.6413 15 17.4697 15C18.2982 15 18.9697 15.6716 18.9697 16.5Z" fill="#071A33"/>
<path d="M10.9697 24.5C10.9697 25.3284 10.2982 26 9.46973 26C8.6413 26 7.96973 25.3284 7.96973 24.5C7.96973 23.6716 8.6413 23 9.46973 23C10.2982 23 10.9697 23.6716 10.9697 24.5Z" fill="#071A33"/>
<path d="M26.9697 24.5C26.9697 25.3284 26.2982 26 25.4697 26C24.6413 26 23.9697 25.3284 23.9697 24.5C23.9697 23.6716 24.6413 23 25.4697 23C26.2982 23 26.9697 23.6716 26.9697 24.5Z" fill="#071A33"/>
<path d="M18.9697 24.5C18.9697 25.3284 18.2982 26 17.4697 26C16.6413 26 15.9697 25.3284 15.9697 24.5C15.9697 23.6716 16.6413 23 17.4697 23C18.2982 23 18.9697 23.6716 18.9697 24.5Z" fill="#071A33"/>
</svg>
