<svg width="50" height="50" viewBox="0 0 50 50" fill="none" xmlns="http://www.w3.org/2000/svg">
<path d="M26.4364 24.9998L37.7026 13.7336C38.0992 13.3369 38.0992 12.6938 37.7026 12.2972C37.3059 11.9006 36.6628 11.9006 36.2662 12.2972L25 23.5635L13.7338 12.2972C13.3372 11.9006 12.6941 11.9006 12.2975 12.2972C11.9009 12.6939 11.9008 13.337 12.2975 13.7336L23.5637 24.9998L12.2975 36.266C11.9008 36.6626 11.9008 37.3057 12.2975 37.7023C12.4958 37.9006 12.7557 37.9998 13.0157 37.9998C13.2756 37.9998 13.5355 37.9006 13.7339 37.7023L25 26.4362L36.2662 37.7023C36.4645 37.9006 36.7244 37.9998 36.9844 37.9998C37.2443 37.9998 37.5042 37.9006 37.7026 37.7023C38.0992 37.3057 38.0992 36.6626 37.7026 36.266L26.4364 24.9998Z" fill="#071A33"/>
</svg>
