<svg width="24" height="24" viewBox="0 0 24 24" fill="none" xmlns="http://www.w3.org/2000/svg">
<path d="M8.2789 10.4797C8.18366 10.5195 8.12151 10.6122 8.12151 10.7151L8.12151 13.5058L1.75468 13.5058C1.6141 13.5058 1.5 13.6199 1.5 13.7604L1.5 17.8352C1.5 17.9758 1.6141 18.0899 1.75468 18.0899L8.12153 18.0899L8.12153 20.8913C8.12153 20.9942 8.18368 21.0869 8.27842 21.1266C8.37366 21.1659 8.48318 21.1445 8.55602 21.0716L13.6536 15.9909C13.7014 15.943 13.7284 15.8783 13.7284 15.8106C13.7284 15.7428 13.7014 15.6781 13.6541 15.6303L8.55652 10.5347C8.48366 10.4619 8.37416 10.44 8.2789 10.4797Z" stroke="white" stroke-width="1.1"/>
<path d="M15.7211 3.01959C15.8163 3.05932 15.8785 3.15203 15.8785 3.25491L15.8785 6.04562L22.2453 6.04562C22.3859 6.04562 22.5 6.15972 22.5 6.3003L22.5 10.3751C22.5 10.5157 22.3859 10.6298 22.2453 10.6298L15.8785 10.6298L15.8785 13.4312C15.8785 13.5341 15.8163 13.6268 15.7216 13.6665C15.6263 13.7057 15.5168 13.6843 15.444 13.6115L10.3464 8.53074C10.2986 8.48287 10.2715 8.41817 10.2715 8.35043C10.2715 8.28269 10.2986 8.21799 10.3459 8.17012L15.4435 3.0746C15.5163 3.00176 15.6258 2.97986 15.7211 3.01959Z" stroke="white" stroke-width="1.1"/>
</svg>
