<svg width="24" height="24" viewBox="0 0 24 24" fill="none" xmlns="http://www.w3.org/2000/svg">
<path fill-rule="evenodd" clip-rule="evenodd" d="M11.9855 8.63258L10.9323 7.59422C10.4678 7.13626 9.96689 6.71733 9.47052 6.42033C8.96486 6.11776 8.5614 6 8.26333 6C7.29161 6 6.32165 6.36103 5.59433 7.07814C4.14071 8.51137 4.13524 10.8635 5.57794 12.3037L11.9881 18.2124L18.433 12.3024C19.1472 11.5887 19.5 10.6502 19.5 9.71814C19.5 8.77847 19.1414 7.83224 18.4154 7.11637L18.404 7.10516L18.3929 7.09372C17.8212 6.50555 17.0657 6.22937 16.2504 6.22937C15.1299 6.22937 13.9333 6.71208 13.0386 7.59422L11.9855 8.63258ZM19.4685 13.388L11.9855 20.25L4.5412 13.388C2.48627 11.362 2.48627 8.0361 4.5412 6.01001C5.56866 4.99697 6.92569 4.5 8.26333 4.5C9.60097 4.5 10.958 5.51305 11.9855 6.52609C13.1486 5.37925 14.7189 4.72937 16.2504 4.72937C17.4136 4.72937 18.5767 5.13076 19.4685 6.04824C20.496 7.06129 21 8.39927 21 9.71814C21 11.037 20.496 12.375 19.4685 13.388Z" fill="white" stroke="white" stroke-width="0.3"/>
</svg>
