<svg width="32" height="32" viewBox="0 0 32 32" fill="none" xmlns="http://www.w3.org/2000/svg">
<path fill-rule="evenodd" clip-rule="evenodd" d="M7.83504 6.07322C7.40503 6.19144 7.07299 6.39015 6.727 6.73633C6.14934 7.31438 5.9591 7.8377 6.00711 8.71668C6.10785 10.5607 6.88899 13.2293 7.94497 15.3373C9.64853 18.7379 12.2141 21.4733 15.5542 23.4502C17.6882 24.7133 20.1928 25.5886 22.6564 25.9322C23.943 26.1117 24.5845 25.9492 25.2632 25.272C25.6158 24.9202 25.8489 24.5198 25.9457 24.1001C26.0262 23.7508 26.0113 20.3247 25.9279 20.0114C25.8077 19.5601 25.6166 19.2363 25.2625 18.8841C24.8068 18.431 24.4752 18.2737 23.7062 18.1457C22.9225 18.0153 22.2797 17.8556 21.5884 17.6196C20.6467 17.298 20.0196 17.3091 19.3162 17.6595C19.0461 17.7941 18.8457 17.9544 18.3899 18.4004L17.8083 18.9696L17.3253 18.6481C17.0597 18.4712 16.6248 18.1548 16.3589 17.9449C15.7574 17.4701 14.4532 16.167 14.0226 15.6107C13.625 15.0971 13.0415 14.2414 13.0415 14.1721C13.0415 14.144 13.2583 13.907 13.5233 13.6456C14.3392 12.8405 14.5862 12.347 14.5837 11.5269C14.5826 11.1226 14.5613 11.0129 14.3845 10.4966C14.1334 9.76379 13.9752 9.13716 13.8509 8.38326C13.7749 7.92301 13.7106 7.69948 13.5676 7.39845C13.2582 6.74681 12.6655 6.25636 11.9678 6.07465C11.589 5.97596 8.19308 5.97476 7.83504 6.07322ZM11.8513 7.31576C12.1072 7.43422 12.3442 7.66051 12.4694 7.90586C12.5194 8.00398 12.6043 8.34554 12.6578 8.66486C12.7781 9.38122 12.936 10.0109 13.1844 10.7648C13.5292 11.8111 13.4854 11.9453 12.4605 12.9845C11.5497 13.908 11.5276 13.9528 11.7541 14.4131C12.2528 15.426 13.5544 17.0632 14.6989 18.1171C15.7195 19.0569 17.383 20.2376 17.8055 20.3221C18.0756 20.3761 18.1961 20.2949 18.9505 19.55C20.0186 18.4953 20.1915 18.4398 21.2816 18.8026C22.0141 19.0464 22.4511 19.1563 23.2868 19.3073C24.1733 19.4674 24.409 19.6025 24.6701 20.1004C24.7823 20.3144 24.7825 20.3174 24.7825 22.0771C24.7825 23.8305 24.7819 23.8406 24.6708 24.0643C24.5425 24.3222 24.2554 24.6002 24.0033 24.7104C23.7557 24.8186 23.2054 24.7985 22.3539 24.6501C19.2403 24.1072 16.403 22.8313 13.9094 20.8526C13.1348 20.238 11.7629 18.8668 11.1552 18.0999C9.14145 15.5588 7.88257 12.7624 7.34592 9.63814C7.2005 8.79146 7.18269 8.24218 7.29267 7.99607C7.38778 7.78321 7.57126 7.56111 7.76726 7.42155C8.05909 7.21374 8.24814 7.19545 9.99314 7.20621C11.5475 7.21578 11.648 7.22169 11.8513 7.31576Z" fill="#071A33"/>
</svg>
