<svg width="33" height="32" viewBox="0 0 33 32" fill="none" xmlns="http://www.w3.org/2000/svg">
<path d="M13.2889 4.80005C12.0859 4.79969 10.9004 5.08792 9.83195 5.64055C8.76346 6.19317 7.84313 6.99407 7.14823 7.976C6.45333 8.95793 6.00414 10.0922 5.83836 11.2837C5.67258 12.4752 5.79505 13.689 6.19549 14.8234C6.59593 15.9577 7.26266 16.9794 8.1397 17.8027C9.01675 18.6261 10.0785 19.227 11.2359 19.555C12.3932 19.8831 13.6124 19.9287 14.791 19.688C15.9696 19.4474 17.0733 18.9275 18.0094 18.172L26.8032 26.9657C26.8774 27.04 26.9656 27.0989 27.0627 27.1392C27.1598 27.1794 27.2638 27.2 27.3688 27.2C27.4739 27.2 27.5779 27.1794 27.675 27.1392C27.7721 27.0989 27.8603 27.04 27.9345 26.9657C28.0088 26.8914 28.0678 26.8032 28.108 26.7062C28.1482 26.6091 28.1689 26.5051 28.1689 26.4C28.1689 26.295 28.1482 26.191 28.108 26.0939C28.0678 25.9968 28.0088 25.9086 27.9345 25.8343L19.1408 17.0406C20.0322 15.9363 20.5928 14.6023 20.7578 13.1928C20.9229 11.7833 20.6856 10.3559 20.0735 9.07557C19.4614 7.79524 18.4995 6.71428 17.2988 5.95768C16.0982 5.20109 14.708 4.79974 13.2889 4.80005ZM17.4749 16.5061C16.5064 17.4745 15.2322 18.0771 13.8692 18.2113C12.5062 18.3455 11.1389 18.003 10.0002 17.2421C8.86142 16.4811 8.02176 15.3489 7.62422 14.0383C7.22668 12.7277 7.29588 11.3199 7.82 10.0546C8.34413 8.78926 9.29077 7.74484 10.4986 7.09925C11.7065 6.45366 13.1008 6.24684 14.444 6.51404C15.7873 6.78124 16.9963 7.50592 17.8652 8.56461C18.734 9.6233 19.2089 10.9505 19.2089 12.32C19.21 13.0976 19.0575 13.8678 18.7599 14.5862C18.4623 15.3046 18.0256 15.9571 17.4749 16.5061Z" fill="#071A33"/>
</svg>
