<svg display="none"
  xmlns="http://www.w3.org/2000/svg">
  <symbol id="app" viewBox="0 0 32 32">
    <path fill-rule="evenodd" clip-rule="evenodd" d="M7.40039 13C7.40039 8.25063 11.251 4.40002 16.0004 4.40002C20.7498 4.40002 24.6004 8.25063 24.6004 13V19C24.6004 23.7494 20.7498 27.6 16.0004 27.6C11.251 27.6 7.40039 23.7494 7.40039 19V13ZM16.0004 5.60003C11.9138 5.60003 8.60041 8.91337 8.60041 13V19C8.60041 23.0867 11.9138 26.4 16.0004 26.4C20.087 26.4 23.4004 23.0867 23.4004 19V13C23.4004 8.91337 20.087 5.60003 16.0004 5.60003Z"/>
    <path fill-rule="evenodd" clip-rule="evenodd" d="M15.3741 8.52974C14.9808 8.21795 14.4013 8.49804 14.4013 8.99991V13.5652V14.5391L13.7168 13.8464L12.4281 12.5422L12.4281 12.5422C12.1952 12.3065 11.8153 12.3042 11.5796 12.5371L11.5796 12.5371C11.3439 12.77 11.3417 13.1499 11.5746 13.3856L11.5746 13.3856L13.8759 15.7146L14.1553 15.9974L13.8742 16.2786L11.5951 18.5577C11.3608 18.792 11.3608 19.1719 11.5951 19.4062C11.8294 19.6405 12.2093 19.6405 12.4436 19.4062L13.7185 18.1313L14.4013 17.4485V18.4141V22.9999C14.4013 23.5043 14.9858 23.7836 15.3782 23.4668L15.6294 23.778L15.3782 23.4668L20.3782 19.4308C20.7027 19.1689 20.6676 18.664 20.31 18.4495L20.31 18.4495L16.7605 16.3197L16.1923 15.9788L16.7587 15.6348L20.3127 13.4768L20.3128 13.4768C20.67 13.2598 20.7015 12.7533 20.3741 12.4937L20.3741 12.4937L15.3741 8.52974L15.3741 8.52974ZM16.2499 10.7554L15.6014 10.2413V11.0688V14.2228V14.9336L16.209 14.5647L18.4618 13.1968L18.953 12.8985L18.5027 12.5414L16.2499 10.7554ZM16.2072 17.3871L15.6014 17.0236V17.7301V20.9076V21.7445L16.2526 21.2188L18.5106 19.3962L18.9562 19.0365L18.4652 18.7419L16.2072 17.3871Z"/>
  </symbol>

  <symbol id="bag" viewBox="0 0 32 32">
    <path d="M9.2225 27.288H22.8575C23.9774 27.2879 25.0513 26.8319 25.8432 26.0202C26.635 25.2086 27.0799 24.1078 27.08 22.9599V11.38C27.08 11.1625 26.9957 10.954 26.8457 10.8002C26.6957 10.6464 26.4922 10.56 26.28 10.56H22.6V8.11312C22.5999 7.02228 22.1771 5.97613 21.4246 5.20479C20.6721 4.43345 19.6514 4.00008 18.5872 4H13.4928C12.4286 4.00008 11.4079 4.43345 10.6554 5.20479C9.90288 5.97613 9.48008 7.02228 9.48 8.11312V10.56H5.8C5.58783 10.56 5.38434 10.6464 5.23431 10.8002C5.08429 10.954 5 11.1625 5 11.38V22.9599C5.00009 24.1078 5.44498 25.2086 6.23684 26.0202C7.02869 26.8319 8.10265 27.2879 9.2225 27.288ZM11.08 8.11312C11.08 7.45721 11.3342 6.82817 11.7867 6.36437C12.2392 5.90057 12.8529 5.64001 13.4928 5.64H18.5872C19.2271 5.64001 19.8408 5.90057 20.2933 6.36437C20.7458 6.82817 21 7.45721 21 8.11312V10.56H11.08V8.11312ZM6.6 12.2H9.48V14.66C9.48 14.8775 9.56429 15.086 9.71431 15.2398C9.86434 15.3936 10.0678 15.48 10.28 15.48C10.4922 15.48 10.6957 15.3936 10.8457 15.2398C10.9957 15.086 11.08 14.8775 11.08 14.66V12.2H21V14.66C21 14.8775 21.0843 15.086 21.2343 15.2398C21.3843 15.3936 21.5878 15.48 21.8 15.48C22.0122 15.48 22.2157 15.3936 22.3657 15.2398C22.5157 15.086 22.6 14.8775 22.6 14.66V12.2H25.48V22.9599C25.48 23.6729 25.2037 24.3566 24.7119 24.8607C24.2201 25.3648 23.553 25.648 22.8575 25.648H9.2225C8.52697 25.648 7.85994 25.3648 7.36812 24.8607C6.87631 24.3566 6.60001 23.6729 6.6 22.9599V12.2Z" stroke="#F7F7F7" stroke-width="0.3"/>
  </symbol>

  <symbol id="burger" viewBox="0 0 32 32">
    <path d="M5 8C5 8.55228 5.44772 9 6 9H26C26.5523 9 27 8.55228 27 8C27 7.44772 26.5523 7 26 7H6C5.44772 7 5 7.44772 5 8Z"/>
    <path d="M16 16C16 16.5523 16.4477 17 17 17H26C26.5523 17 27 16.5523 27 16C27 15.4477 26.5523 15 26 15H17C16.4477 15 16 15.4477 16 16Z"/>
    <path d="M5 24C5 24.5523 5.44772 25 6 25H26C26.5523 25 27 24.5523 27 24C27 23.4477 26.5523 23 26 23H6C5.44772 23 5 23.4477 5 24Z"/>
  </symbol>

  <symbol id="catalog" viewBox="0 0 33 32">
    <path d="M10.9697 8.5C10.9697 9.32843 10.2982 10 9.46973 10C8.6413 10 7.96973 9.32843 7.96973 8.5C7.96973 7.67157 8.6413 7 9.46973 7C10.2982 7 10.9697 7.67157 10.9697 8.5Z" />
    <path d="M26.9697 8.5C26.9697 9.32843 26.2982 10 25.4697 10C24.6413 10 23.9697 9.32843 23.9697 8.5C23.9697 7.67157 24.6413 7 25.4697 7C26.2982 7 26.9697 7.67157 26.9697 8.5Z" />
    <path d="M18.9697 8.5C18.9697 9.32843 18.2982 10 17.4697 10C16.6413 10 15.9697 9.32843 15.9697 8.5C15.9697 7.67157 16.6413 7 17.4697 7C18.2982 7 18.9697 7.67157 18.9697 8.5Z" />
    <path d="M10.9697 16.5C10.9697 17.3284 10.2982 18 9.46973 18C8.6413 18 7.96973 17.3284 7.96973 16.5C7.96973 15.6716 8.6413 15 9.46973 15C10.2982 15 10.9697 15.6716 10.9697 16.5Z" />
    <path d="M26.9697 16.5C26.9697 17.3284 26.2982 18 25.4697 18C24.6413 18 23.9697 17.3284 23.9697 16.5C23.9697 15.6716 24.6413 15 25.4697 15C26.2982 15 26.9697 15.6716 26.9697 16.5Z" />
    <path d="M18.9697 16.5C18.9697 17.3284 18.2982 18 17.4697 18C16.6413 18 15.9697 17.3284 15.9697 16.5C15.9697 15.6716 16.6413 15 17.4697 15C18.2982 15 18.9697 15.6716 18.9697 16.5Z" />
    <path d="M10.9697 24.5C10.9697 25.3284 10.2982 26 9.46973 26C8.6413 26 7.96973 25.3284 7.96973 24.5C7.96973 23.6716 8.6413 23 9.46973 23C10.2982 23 10.9697 23.6716 10.9697 24.5Z" />
    <path d="M26.9697 24.5C26.9697 25.3284 26.2982 26 25.4697 26C24.6413 26 23.9697 25.3284 23.9697 24.5C23.9697 23.6716 24.6413 23 25.4697 23C26.2982 23 26.9697 23.6716 26.9697 24.5Z" />
    <path d="M18.9697 24.5C18.9697 25.3284 18.2982 26 17.4697 26C16.6413 26 15.9697 25.3284 15.9697 24.5C15.9697 23.6716 16.6413 23 17.4697 23C18.2982 23 18.9697 23.6716 18.9697 24.5Z" />
  </symbol>

  <symbol id="close" viewBox="0 0 50 50">
    <path d="M26.4364 24.9998L37.7026 13.7336C38.0992 13.3369 38.0992 12.6938 37.7026 12.2972C37.3059 11.9006 36.6628 11.9006 36.2662 12.2972L25 23.5635L13.7338 12.2972C13.3372 11.9006 12.6941 11.9006 12.2975 12.2972C11.9009 12.6939 11.9008 13.337 12.2975 13.7336L23.5637 24.9998L12.2975 36.266C11.9008 36.6626 11.9008 37.3057 12.2975 37.7023C12.4958 37.9006 12.7557 37.9998 13.0157 37.9998C13.2756 37.9998 13.5355 37.9006 13.7339 37.7023L25 26.4362L36.2662 37.7023C36.4645 37.9006 36.7244 37.9998 36.9844 37.9998C37.2443 37.9998 37.5042 37.9006 37.7026 37.7023C38.0992 37.3057 38.0992 36.6626 37.7026 36.266L26.4364 24.9998Z"/>
  </symbol>

  <symbol id="compare" viewBox="0 0 32 32">
    <path fill-rule="evenodd" clip-rule="evenodd" d="M19.9774 4.08467C19.7468 4.19049 13.3663 10.5055 13.1561 10.8361C13.0095 11.0664 12.9759 11.3817 13.0707 11.6372C13.1365 11.8144 19.6843 18.3785 19.9157 18.4993C20.2988 18.699 20.7989 18.5659 21.0412 18.1996L21.1727 18.0007L21.1865 16.3827L21.2002 14.7647L25.0353 14.7519C29.3925 14.7374 29.109 14.7644 29.3789 14.3384L29.5159 14.1221V11.3055C29.5159 8.93951 29.5048 8.46734 29.4466 8.35473C29.346 8.1598 29.0678 7.93209 28.8598 7.87427C28.7409 7.84125 27.4011 7.82397 24.9379 7.82383L21.1966 7.82354L21.1955 6.2801C21.1946 4.8819 21.1862 4.71866 21.1062 4.54522C20.9994 4.31353 20.848 4.16771 20.6118 4.06893C20.3814 3.97254 20.2127 3.97675 19.9774 4.08467ZM24.2332 8.97215H28.4162V11.2933V13.6145H24.2327H20.0491V15.3732V17.132L17.1446 14.2247L14.2401 11.3173L17.1327 8.42163L20.0252 5.52599L20.0377 7.24905L20.0503 8.97215H24.2332ZM10.7974 13.5027C10.5759 13.6199 10.4808 13.7175 10.3854 13.9255C10.3059 14.0987 10.2974 14.2661 10.2965 15.6843L10.2954 17.2517H6.46853C2.7419 17.2517 2.63676 17.2542 2.45508 17.347C2.35247 17.3994 2.20808 17.5215 2.13426 17.6185L2 17.7946V20.7013V23.608L2.14463 23.7869C2.45316 24.1685 2.14932 24.1434 6.45772 24.1434H10.2954L10.2965 25.7108C10.2974 27.1279 10.3059 27.2967 10.3853 27.4715C10.5953 27.9345 11.1346 28.1322 11.5718 27.9066C11.7666 27.8061 18.281 21.314 18.378 21.1238C18.4803 20.923 18.4996 20.5883 18.4211 20.3776C18.3571 20.2062 11.7591 13.5914 11.5557 13.4948C11.3604 13.4021 10.9803 13.406 10.7974 13.5027ZM14.3475 23.6049L11.4429 26.5123V24.7777V23.0432L7.2713 23.0309L3.09968 23.0187V20.6975V18.3764L7.2713 18.3642L11.4429 18.3519V16.6174V14.8828L14.3475 17.7902L17.252 20.6975L14.3475 23.6049Z"/>
  </symbol>

  <symbol id="gift" viewBox="0 0 32 32">
    <path d="M25.2 11.1208H21.51C21.85 10.6039 22.05 9.99034 22.05 9.33333C22.05 7.49517 20.5025 6 18.6 6C17.565 6 16.6325 6.44444 16 7.14493C15.3675 6.44444 14.435 6 13.4 6C11.4975 6 9.95 7.49517 9.95 9.33333C9.95 9.99034 10.1475 10.6039 10.49 11.1208H6.8C6.3575 11.1208 6 11.4662 6 11.8937V16.7246C6 16.8309 6.09 16.9179 6.2 16.9179H7.2V25.2271C7.2 25.6546 7.5575 26 8 26H24C24.4425 26 24.8 25.6546 24.8 25.2271V16.9179H25.8C25.91 16.9179 26 16.8309 26 16.7246V11.8937C26 11.4662 25.6425 11.1208 25.2 11.1208ZM16.85 9.33333C16.85 8.40097 17.635 7.64251 18.6 7.64251C19.565 7.64251 20.35 8.40097 20.35 9.33333C20.35 10.2657 19.565 11.0242 18.6 11.0242H16.85V9.33333ZM13.4 7.64251C14.365 7.64251 15.15 8.40097 15.15 9.33333V11.0242H13.4C12.435 11.0242 11.65 10.2657 11.65 9.33333C11.65 8.40097 12.435 7.64251 13.4 7.64251ZM7.25 15.2754V12.25H15.1667L15.15 15.2754H7.25ZM8.5 16.9179H15.15L15.1667 24.75H8.5V16.9179ZM23.5 24.75H16.8333L16.85 16.9179H23.5V24.75ZM24.8 15.2754H16.85L16.8333 12.25H24.8V15.2754Z"/>
  </symbol>

  <symbol id="like" viewBox="0 0 24 24">
    <path fill-rule="evenodd" clip-rule="evenodd" d="M11.9855 8.63258L10.9323 7.59422C10.4678 7.13626 9.96689 6.71733 9.47052 6.42033C8.96486 6.11776 8.5614 6 8.26333 6C7.29161 6 6.32165 6.36103 5.59433 7.07814C4.14071 8.51137 4.13524 10.8635 5.57794 12.3037L11.9881 18.2124L18.433 12.3024C19.1472 11.5887 19.5 10.6502 19.5 9.71814C19.5 8.77847 19.1414 7.83224 18.4154 7.11637L18.404 7.10516L18.3929 7.09372C17.8212 6.50555 17.0657 6.22937 16.2504 6.22937C15.1299 6.22937 13.9333 6.71208 13.0386 7.59422L11.9855 8.63258ZM19.4685 13.388L11.9855 20.25L4.5412 13.388C2.48627 11.362 2.48627 8.0361 4.5412 6.01001C5.56866 4.99697 6.92569 4.5 8.26333 4.5C9.60097 4.5 10.958 5.51305 11.9855 6.52609C13.1486 5.37925 14.7189 4.72937 16.2504 4.72937C17.4136 4.72937 18.5767 5.13076 19.4685 6.04824C20.496 7.06129 21 8.39927 21 9.71814C21 11.037 20.496 12.375 19.4685 13.388Z" stroke-width="0.2"/>
  </symbol>

  <symbol id="phone" viewBox="0 0 32 32">
    <path fill-rule="evenodd" clip-rule="evenodd" d="M7.83504 6.07322C7.40503 6.19144 7.07299 6.39015 6.727 6.73633C6.14934 7.31438 5.9591 7.8377 6.00711 8.71668C6.10785 10.5607 6.88899 13.2293 7.94497 15.3373C9.64853 18.7379 12.2141 21.4733 15.5542 23.4502C17.6882 24.7133 20.1928 25.5886 22.6564 25.9322C23.943 26.1117 24.5845 25.9492 25.2632 25.272C25.6158 24.9202 25.8489 24.5198 25.9457 24.1001C26.0262 23.7508 26.0113 20.3247 25.9279 20.0114C25.8077 19.5601 25.6166 19.2363 25.2625 18.8841C24.8068 18.431 24.4752 18.2737 23.7062 18.1457C22.9225 18.0153 22.2797 17.8556 21.5884 17.6196C20.6467 17.298 20.0196 17.3091 19.3162 17.6595C19.0461 17.7941 18.8457 17.9544 18.3899 18.4004L17.8083 18.9696L17.3253 18.6481C17.0597 18.4712 16.6248 18.1548 16.3589 17.9449C15.7574 17.4701 14.4532 16.167 14.0226 15.6107C13.625 15.0971 13.0415 14.2414 13.0415 14.1721C13.0415 14.144 13.2583 13.907 13.5233 13.6456C14.3392 12.8405 14.5862 12.347 14.5837 11.5269C14.5826 11.1226 14.5613 11.0129 14.3845 10.4966C14.1334 9.76379 13.9752 9.13716 13.8509 8.38326C13.7749 7.92301 13.7106 7.69948 13.5676 7.39845C13.2582 6.74681 12.6655 6.25636 11.9678 6.07465C11.589 5.97596 8.19308 5.97476 7.83504 6.07322ZM11.8513 7.31576C12.1072 7.43422 12.3442 7.66051 12.4694 7.90586C12.5194 8.00398 12.6043 8.34554 12.6578 8.66486C12.7781 9.38122 12.936 10.0109 13.1844 10.7648C13.5292 11.8111 13.4854 11.9453 12.4605 12.9845C11.5497 13.908 11.5276 13.9528 11.7541 14.4131C12.2528 15.426 13.5544 17.0632 14.6989 18.1171C15.7195 19.0569 17.383 20.2376 17.8055 20.3221C18.0756 20.3761 18.1961 20.2949 18.9505 19.55C20.0186 18.4953 20.1915 18.4398 21.2816 18.8026C22.0141 19.0464 22.4511 19.1563 23.2868 19.3073C24.1733 19.4674 24.409 19.6025 24.6701 20.1004C24.7823 20.3144 24.7825 20.3174 24.7825 22.0771C24.7825 23.8305 24.7819 23.8406 24.6708 24.0643C24.5425 24.3222 24.2554 24.6002 24.0033 24.7104C23.7557 24.8186 23.2054 24.7985 22.3539 24.6501C19.2403 24.1072 16.403 22.8313 13.9094 20.8526C13.1348 20.238 11.7629 18.8668 11.1552 18.0999C9.14145 15.5588 7.88257 12.7624 7.34592 9.63814C7.2005 8.79146 7.18269 8.24218 7.29267 7.99607C7.38778 7.78321 7.57126 7.56111 7.76726 7.42155C8.05909 7.21374 8.24814 7.19545 9.99314 7.20621C11.5475 7.21578 11.648 7.22169 11.8513 7.31576Z"/>
  </symbol>

  <symbol id="popular" viewBox="0 0 32 32">
    <path d="M20.2087 17.5035L19.6658 17.0632L19.413 17.7152C19.4081 17.7276 18.9223 18.9551 18.1765 18.7315C18.0114 18.682 17.9006 18.5865 17.8279 18.4309C17.6427 18.0343 17.7215 17.3165 18.0287 16.6021C18.4534 15.6144 18.2674 14.5793 17.4909 13.6089C16.9446 12.9264 16.2883 12.5131 16.2607 12.4959L15.4655 12L15.4833 12.9367C15.4835 12.9534 15.5006 14.6175 14.2679 15.2277C13.5126 15.6016 12.9719 16.22 12.7454 16.9689C12.5335 17.6696 12.6225 18.4356 12.9895 19.0707C13.1398 19.3305 13.1853 19.5511 13.1249 19.726C13.0386 19.9757 12.7597 20.1044 12.6762 20.1379C11.7949 20.4916 11.218 19.3105 11.1947 19.2619L10.7927 18.4041L10.3 19.2132C9.66737 20.2521 9.33301 21.4476 9.33301 22.6707C9.33301 26.3177 12.2804 29.2892 15.9195 29.3323C15.9462 29.3329 15.9729 29.3333 15.9995 29.3333H15.9997C19.6757 29.3333 22.6663 26.3444 22.6663 22.6707C22.6663 20.6589 21.7706 18.7755 20.2087 17.5035ZM13.9146 26.2333V26.2271C13.9097 25.8225 13.9867 25.3888 14.1442 24.9331L15.3974 25.2992L15.4099 24.6347C15.4293 23.6168 16.0035 22.992 16.4627 22.6539C16.5805 23.1659 16.7639 23.6224 17.0174 24.0364C17.3065 24.5077 17.5801 24.9073 17.8326 25.2684C17.9947 25.5009 18.0867 25.8519 18.0849 26.2313V26.2339C18.0849 26.7903 17.8679 27.3135 17.4741 27.7071C17.0806 28.1004 16.557 28.3171 15.9995 28.3171C15.9995 28.3171 15.9995 28.3171 15.9994 28.3171C14.8503 28.3169 13.915 27.3825 13.9146 26.2333ZM18.7979 27.5744C18.9965 27.1616 19.1015 26.7064 19.1017 26.2349C19.1043 25.6427 18.9498 25.0931 18.6663 24.6867C18.3849 24.2839 18.1441 23.9288 17.8846 23.5056C17.5953 23.0329 17.4211 22.476 17.3527 21.8028L17.2857 21.1448L16.6669 21.3789C16.6089 21.4009 16.0846 21.6076 15.5473 22.0948C14.9774 22.6113 14.6097 23.2503 14.4638 23.9676L13.555 23.7021L13.3755 24.1111C13.0508 24.8513 12.8901 25.5664 12.8978 26.2364C12.8983 26.716 13.0083 27.1704 13.2041 27.5759C11.5005 26.6024 10.3498 24.7683 10.3498 22.6705C10.3498 21.9075 10.5033 21.1571 10.798 20.4635C10.8432 20.5133 10.8912 20.5632 10.9422 20.6123C11.5649 21.2115 12.3153 21.3779 13.055 21.0809C13.5547 20.8804 13.9305 20.5075 14.0859 20.0577C14.1966 19.7375 14.249 19.218 13.8699 18.5623C13.6395 18.1636 13.5858 17.7021 13.7186 17.2629C13.863 16.7857 14.2183 16.3864 14.7191 16.1384C15.7731 15.6167 16.2039 14.6372 16.3797 13.8943C16.4906 14.0032 16.6045 14.1268 16.7117 14.2625C17.2341 14.9245 17.3629 15.5767 17.0945 16.2009C16.6653 17.1993 16.595 18.1936 16.9066 18.8608C17.1023 19.28 17.4405 19.5719 17.8843 19.7049C18.5821 19.9143 19.2645 19.6707 19.8058 19.0192C19.8906 18.9172 19.9654 18.8133 20.0306 18.7136C21.0662 19.7653 21.6495 21.1763 21.6495 22.6705C21.6495 24.7672 20.5001 26.6005 18.7979 27.5744Z"/>
    <path d="M12.3944 3.98932H10.0691V10.6666H9.18373V3.98932H6.8584V3.19998H12.3944V3.98932ZM12.67 6.93332C12.67 5.68888 12.9331 4.73598 13.4593 4.07465C13.9856 3.40621 14.7357 3.07198 15.71 3.07198C16.2363 3.07198 16.6913 3.16442 17.0753 3.34932C17.4593 3.53421 17.7757 3.79732 18.0247 4.13865C18.2807 4.47288 18.4691 4.87821 18.59 5.35465C18.7109 5.82398 18.7713 6.35021 18.7713 6.93332C18.7713 8.17776 18.5047 9.13421 17.9713 9.80265C17.4451 10.464 16.6913 10.7946 15.71 10.7946C15.1909 10.7946 14.7393 10.7022 14.3553 10.5173C13.9784 10.3324 13.662 10.0729 13.406 9.73865C13.1571 9.39732 12.9722 8.99198 12.8513 8.52265C12.7304 8.04621 12.67 7.51642 12.67 6.93332ZM13.6087 6.93332C13.6087 7.34576 13.6477 7.73688 13.726 8.10665C13.8113 8.47642 13.9393 8.80354 14.11 9.08798C14.2807 9.36532 14.4976 9.58932 14.7607 9.75998C15.0309 9.92354 15.3473 10.0053 15.71 10.0053C16.3713 10.0053 16.8904 9.75642 17.2673 9.25865C17.6443 8.75376 17.8327 7.97865 17.8327 6.93332C17.8327 6.52798 17.79 6.14042 17.7047 5.77065C17.6264 5.39376 17.4984 5.06665 17.3207 4.78932C17.15 4.50488 16.9296 4.28088 16.6593 4.11732C16.3963 3.94665 16.0797 3.86132 15.71 3.86132C15.0557 3.86132 14.5403 4.11376 14.1633 4.61865C13.7936 5.11642 13.6087 5.88798 13.6087 6.93332ZM24.6016 3.98932H21.1563V10.6666H20.2709V3.19998H25.4869V10.6666H24.6016V3.98932Z"/>
    <path d="M12.3942 3.98935V4.18935H12.5942V3.98935H12.3942ZM10.0689 3.98935V3.78935H9.86887V3.98935H10.0689ZM10.0689 10.6667V10.8667H10.2689V10.6667H10.0689ZM9.18354 10.6667H8.98354V10.8667H9.18354V10.6667ZM9.18354 3.98935H9.38354V3.78935H9.18354V3.98935ZM6.8582 3.98935H6.6582V4.18935H6.8582V3.98935ZM6.8582 3.20002V3.00002H6.6582V3.20002H6.8582ZM12.3942 3.20002H12.5942V3.00002H12.3942V3.20002ZM12.3942 3.78935H10.0689V4.18935H12.3942V3.78935ZM9.86887 3.98935V10.6667H10.2689V3.98935H9.86887ZM10.0689 10.4667H9.18354V10.8667H10.0689V10.4667ZM9.38354 10.6667V3.98935H8.98354V10.6667H9.38354ZM9.18354 3.78935H6.8582V4.18935H9.18354V3.78935ZM7.0582 3.98935V3.20002H6.6582V3.98935H7.0582ZM6.8582 3.40002H12.3942V3.00002H6.8582V3.40002ZM12.1942 3.20002V3.98935H12.5942V3.20002H12.1942ZM13.4591 4.07468L13.6157 4.19922L13.6162 4.19839L13.4591 4.07468ZM17.0751 3.34935L17.1619 3.16915L17.0751 3.34935ZM18.0245 4.13868L17.8629 4.25655L17.8657 4.2603L18.0245 4.13868ZM18.5898 5.35468L18.3959 5.40387L18.3961 5.40456L18.5898 5.35468ZM17.9711 9.80268L17.8147 9.67795L17.8146 9.67815L17.9711 9.80268ZM14.3551 10.5174L14.267 10.6969L14.2683 10.6975L14.3551 10.5174ZM13.4058 9.73868L13.2441 9.85655L13.247 9.8603L13.4058 9.73868ZM12.8511 8.52268L12.6573 8.57187L12.6574 8.57258L12.8511 8.52268ZM13.7258 8.10668L13.5301 8.14808L13.5309 8.15166L13.7258 8.10668ZM14.1098 9.08802L13.9383 9.19092L13.9394 9.19283L14.1098 9.08802ZM14.7605 9.76002L14.6515 9.9279L14.6569 9.93112L14.7605 9.76002ZM17.2671 9.25868L17.4266 9.37942L17.4274 9.37832L17.2671 9.25868ZM17.7045 5.77068L17.5086 5.81134L17.5095 5.81566L17.7045 5.77068ZM17.3205 4.78935L17.1489 4.8923L17.1521 4.89728L17.3205 4.78935ZM16.6591 4.11735L16.5502 4.28523L16.5555 4.28844L16.6591 4.11735ZM14.1631 4.61868L14.0029 4.49904L14.0026 4.49942L14.1631 4.61868ZM12.8698 6.93335C12.8698 5.71354 13.1282 4.81183 13.6157 4.19922L13.3026 3.95015C12.7376 4.6602 12.4698 5.66428 12.4698 6.93335H12.8698ZM13.6162 4.19839C14.0987 3.58551 14.7869 3.27202 15.7098 3.27202V2.87202C14.6843 2.87202 13.8719 3.22696 13.302 3.95098L13.6162 4.19839ZM15.7098 3.27202C16.2129 3.27202 16.637 3.36039 16.9883 3.52955L17.1619 3.16915C16.7453 2.96854 16.2591 2.87202 15.7098 2.87202V3.27202ZM16.9883 3.52955C17.3429 3.70027 17.6335 3.94207 17.8629 4.25652L18.1861 4.02084C17.9175 3.65263 17.5753 3.3682 17.1619 3.16915L16.9883 3.52955ZM17.8657 4.2603C18.1027 4.56971 18.2806 4.94935 18.3959 5.40387L18.7837 5.3055C18.6571 4.80714 18.4582 4.37611 18.1833 4.01707L17.8657 4.2603ZM18.3961 5.40456C18.5121 5.85471 18.5711 6.36378 18.5711 6.93335H18.9711C18.9711 6.3367 18.9093 5.79332 18.7834 5.30479L18.3961 5.40456ZM18.5711 6.93335C18.5711 8.15247 18.3095 9.05791 17.8147 9.67795L18.1274 9.92742C18.6994 9.21056 18.9711 8.20312 18.9711 6.93335H18.5711ZM17.8146 9.67815C17.3327 10.2838 16.6413 10.5947 15.7098 10.5947V10.9947C16.741 10.9947 17.5571 10.6442 18.1277 9.92722L17.8146 9.67815ZM15.7098 10.5947C15.2143 10.5947 14.7935 10.5065 14.4419 10.3372L14.2683 10.6975C14.6847 10.898 15.1671 10.9947 15.7098 10.9947V10.5947ZM14.4433 10.3378C14.0941 10.1665 13.8018 9.92686 13.5646 9.61707L13.247 9.8603C13.5217 10.219 13.8623 10.4984 14.267 10.6969L14.4433 10.3378ZM13.5674 9.62084C13.3354 9.30271 13.1603 8.92123 13.0448 8.47279L12.6574 8.57258C12.7837 9.0628 12.9784 9.49199 13.2442 9.85652L13.5674 9.62084ZM13.045 8.4735C12.9288 8.01578 12.8698 7.50286 12.8698 6.93335H12.4698C12.4698 7.53007 12.5316 8.0767 12.6573 8.57187L13.045 8.4735ZM13.4085 6.93335C13.4085 7.35846 13.4487 7.76352 13.5301 8.14807L13.9214 8.0653C13.8463 7.7103 13.8085 7.33314 13.8085 6.93335H13.4085ZM13.5309 8.15166C13.6203 8.53896 13.7554 8.88612 13.9383 9.19091L14.2813 8.98512C14.1229 8.72102 14.0019 8.41396 13.9206 8.06171L13.5309 8.15166ZM13.9394 9.19283C14.1251 9.49447 14.3626 9.74035 14.6517 9.9278L14.8693 9.59223C14.6321 9.43835 14.4358 9.23623 14.2801 8.9832L13.9394 9.19283ZM14.6569 9.93112C14.9627 10.1162 15.3161 10.2053 15.7098 10.2053V9.80535C15.3781 9.80535 15.0986 9.7309 14.8641 9.58891L14.6569 9.93112ZM15.7098 10.2053C16.4294 10.2053 17.0094 9.93047 17.4266 9.37942L17.1077 9.13795C16.7711 9.58246 16.3129 9.80535 15.7098 9.80535V10.2053ZM17.4274 9.37832C17.8422 8.8227 18.0325 7.9959 18.0325 6.93335H17.6325C17.6325 7.96147 17.4458 8.6849 17.1069 9.13904L17.4274 9.37832ZM18.0325 6.93335C18.0325 6.5139 17.9883 6.1112 17.8993 5.72571L17.5095 5.81566C17.5913 6.16972 17.6325 6.54212 17.6325 6.93335H18.0325ZM17.9003 5.73004C17.8179 5.33319 17.6818 4.98247 17.4889 4.68142L17.1521 4.89728C17.3146 5.1509 17.4346 5.45439 17.5086 5.81132L17.9003 5.73004ZM17.4919 4.68646C17.3054 4.37552 17.0622 4.12752 16.7627 3.94624L16.5555 4.28844C16.7965 4.43428 16.9942 4.63428 17.149 4.89224L17.4919 4.68646ZM16.7679 3.94956C16.467 3.75434 16.1111 3.66135 15.7098 3.66135V4.06135C16.0479 4.06135 16.325 4.13903 16.5503 4.28514L16.7679 3.94956ZM15.7098 3.66135C14.9953 3.66135 14.4191 3.94135 14.0029 4.49904L14.3234 4.73832C14.6609 4.28624 15.1158 4.06135 15.7098 4.06135V3.66135ZM14.0026 4.49942C13.5949 5.04824 13.4085 5.87171 13.4085 6.93335H13.8085C13.8085 5.90432 13.9918 5.18468 14.3237 4.73795L14.0026 4.49942ZM24.6014 3.98935H24.8014V3.78935H24.6014V3.98935ZM21.1561 3.98935V3.78935H20.9561V3.98935H21.1561ZM21.1561 10.6667V10.8667H21.3561V10.6667H21.1561ZM20.2707 10.6667H20.0707V10.8667H20.2707V10.6667ZM20.2707 3.20002V3.00002H20.0707V3.20002H20.2707ZM25.4867 3.20002H25.6867V3.00002H25.4867V3.20002ZM25.4867 10.6667V10.8667H25.6867V10.6667H25.4867ZM24.6014 10.6667H24.4014V10.8667H24.6014V10.6667ZM24.6014 3.78935H21.1561V4.18935H24.6014V3.78935ZM20.9561 3.98935V10.6667H21.3561V3.98935H20.9561ZM21.1561 10.4667H20.2707V10.8667H21.1561V10.4667ZM20.4707 10.6667V3.20002H20.0707V10.6667H20.4707ZM20.2707 3.40002H25.4867V3.00002H20.2707V3.40002ZM25.2867 3.20002V10.6667H25.6867V3.20002H25.2867ZM25.4867 10.4667H24.6014V10.8667H25.4867V10.4667ZM24.8014 10.6667V3.98935H24.4014V10.6667H24.8014Z"/>
  </symbol>

  <symbol id="right" viewBox="0 0 10 17">
    <path d="M1.77734 1.33337L8.77734 8.33338L1.77734 15.3334" fill="none" stroke="white" stroke-width="2" stroke-linecap="round" stroke-linejoin="round"/>
  </symbol>

  <symbol id="sale" viewBox="0 0 32 32">
    <path d="M18.7192 17.962C18.8994 17.7818 19.1916 17.7818 19.3717 17.962C19.552 18.1422 19.552 18.4343 19.3717 18.6145L13.2815 24.7048C13.1914 24.7949 13.0733 24.8399 12.9552 24.8399C12.8371 24.8399 12.719 24.7949 12.629 24.7048C12.4488 24.5246 12.4488 24.2324 12.629 24.0522L18.7192 17.962Z"/>
    <path fill-rule="evenodd" clip-rule="evenodd" d="M14.1544 17.1807C13.2215 17.1807 12.4626 17.9396 12.4626 18.8725C12.4626 19.8054 13.2215 20.5643 14.1544 20.5643C15.0873 20.5643 15.8462 19.8054 15.8462 18.8725C15.8462 17.9396 15.0873 17.1807 14.1544 17.1807ZM14.1544 19.6415C13.7304 19.6415 13.3854 19.2965 13.3854 18.8725C13.3854 18.4484 13.7304 18.1035 14.1544 18.1035C14.5784 18.1035 14.9234 18.4484 14.9234 18.8725C14.9234 19.2965 14.5784 19.6415 14.1544 19.6415Z"/>
    <path fill-rule="evenodd" clip-rule="evenodd" d="M16.154 23.7941C16.154 22.8612 16.9129 22.1022 17.8458 22.1022C18.7787 22.1022 19.5376 22.8612 19.5376 23.7941C19.5376 24.7269 18.7787 25.4859 17.8458 25.4859C16.9129 25.4859 16.154 24.7269 16.154 23.7941ZM17.0768 23.7941C17.0768 24.2181 17.4218 24.563 17.8458 24.563C18.2698 24.563 18.6148 24.2181 18.6148 23.7941C18.6148 23.37 18.2698 23.0251 17.8458 23.0251C17.4217 23.0251 17.0768 23.37 17.0768 23.7941Z"/>
    <path fill-rule="evenodd" clip-rule="evenodd" d="M23.2286 21.1261C23.1615 21.2578 23.1615 21.4089 23.2286 21.5406L23.8505 22.7613C24.1967 23.4411 23.9224 24.2513 23.2259 24.6058L21.975 25.2427C21.8401 25.3114 21.7475 25.4336 21.7211 25.578L21.4764 26.9163C21.3402 27.6615 20.6222 28.1623 19.8413 28.0563L18.4391 27.866C18.2879 27.8456 18.1382 27.8922 18.0284 27.9941L17.0106 28.9388C16.7273 29.2018 16.3636 29.3333 16 29.3333C15.6364 29.3334 15.2728 29.2019 14.9894 28.9388L13.9717 27.9941C13.8618 27.8922 13.7121 27.8454 13.5609 27.866L12.1588 28.0563C12.0888 28.0658 12.0191 28.0704 11.9505 28.0704C11.2538 28.0705 10.6476 27.5947 10.5236 26.9164L10.2789 25.578C10.2525 25.4336 10.16 25.3114 10.025 25.2427L8.7741 24.6058C8.07761 24.2512 7.80326 23.4411 8.14952 22.7614L8.77143 21.5406C8.83852 21.409 8.83852 21.2579 8.77143 21.1262L8.14955 19.9054C7.80329 19.2257 8.07764 18.4155 8.77413 18.061L10.0251 17.4241C10.16 17.3554 10.2525 17.2332 10.2789 17.0888L10.5236 15.7505C10.6598 15.0053 11.3779 14.5045 12.1587 14.6105L13.5609 14.8008C13.7122 14.8213 13.8618 14.7747 13.9716 14.6727L14.9894 13.7279C15.5561 13.2018 16.4439 13.2018 17.0106 13.7279L18.0284 14.6726C18.1382 14.7745 18.2878 14.8212 18.4391 14.8007L19.8413 14.6104C20.6218 14.5044 21.3402 15.0052 21.4764 15.7504L21.7211 17.0888C21.7475 17.2331 21.84 17.3553 21.975 17.424L23.2259 18.0609C23.9224 18.4155 24.1967 19.2256 23.8505 19.9053L23.2286 21.1261ZM21.5242 24.4275L22.7751 23.7906C23.0108 23.6707 23.1036 23.3965 22.9864 23.1665L22.3645 21.9458C22.1663 21.5565 22.1663 21.1101 22.3645 20.7208L22.9864 19.5001C23.1036 19.2701 23.0108 18.996 22.7751 18.8761L21.5242 18.2392C21.1253 18.0362 20.8518 17.675 20.7738 17.2482L20.5291 15.9098C20.4831 15.6577 20.2399 15.4883 19.9759 15.5242L18.5738 15.7145C18.1267 15.7752 17.6842 15.6372 17.3596 15.3359L16.3419 14.3912C16.1501 14.2133 15.8497 14.2133 15.658 14.3912L14.6402 15.3359C14.3157 15.6371 13.8731 15.7752 13.4261 15.7145L12.024 15.5242C11.7597 15.4883 11.5168 15.6577 11.4707 15.9098L11.2261 17.2482C11.1481 17.6749 10.8745 18.0361 10.4757 18.2392L9.2248 18.8761C8.98914 18.996 8.89633 19.2701 9.01347 19.5001L9.63538 20.7209C9.83365 21.1101 9.83365 21.5566 9.63538 21.9458L9.01347 23.1666C8.89633 23.3965 8.98914 23.6706 9.2248 23.7906L10.4757 24.4275C10.8746 24.6305 11.1481 24.9917 11.2261 25.4184L11.4708 26.7568C11.5169 27.009 11.76 27.1783 12.024 27.1425L13.4262 26.9522C13.4954 26.9428 13.5645 26.9382 13.6331 26.9382C14.0075 26.9382 14.366 27.0761 14.6403 27.3307L15.6581 28.2755C15.8498 28.4534 16.1502 28.4534 16.3419 28.2755L17.3597 27.3308C17.6842 27.0295 18.1267 26.8915 18.5738 26.9522L19.976 27.1425C20.2402 27.1783 20.4831 27.009 20.5292 26.7569L20.7739 25.4185C20.8519 24.9918 21.1254 24.6306 21.5242 24.4275Z" fill="#C28005"/>
    <path d="M18.7192 17.962C18.8994 17.7818 19.1916 17.7818 19.3717 17.962C19.552 18.1422 19.552 18.4343 19.3717 18.6145L13.2815 24.7048C13.1914 24.7949 13.0733 24.8399 12.9552 24.8399C12.8371 24.8399 12.719 24.7949 12.629 24.7048C12.4488 24.5246 12.4488 24.2324 12.629 24.0522L18.7192 17.962Z" stroke="#C28005" stroke-width="0.2"/>
    <path fill-rule="evenodd" clip-rule="evenodd" d="M14.1544 17.1807C13.2215 17.1807 12.4626 17.9396 12.4626 18.8725C12.4626 19.8054 13.2215 20.5643 14.1544 20.5643C15.0873 20.5643 15.8462 19.8054 15.8462 18.8725C15.8462 17.9396 15.0873 17.1807 14.1544 17.1807ZM14.1544 19.6415C13.7304 19.6415 13.3854 19.2965 13.3854 18.8725C13.3854 18.4484 13.7304 18.1035 14.1544 18.1035C14.5784 18.1035 14.9234 18.4484 14.9234 18.8725C14.9234 19.2965 14.5784 19.6415 14.1544 19.6415Z" stroke="#C28005" stroke-width="0.2"/>
    <path fill-rule="evenodd" clip-rule="evenodd" d="M16.154 23.7941C16.154 22.8612 16.9129 22.1022 17.8458 22.1022C18.7787 22.1022 19.5376 22.8612 19.5376 23.7941C19.5376 24.7269 18.7787 25.4859 17.8458 25.4859C16.9129 25.4859 16.154 24.7269 16.154 23.7941ZM17.0768 23.7941C17.0768 24.2181 17.4218 24.563 17.8458 24.563C18.2698 24.563 18.6148 24.2181 18.6148 23.7941C18.6148 23.37 18.2698 23.0251 17.8458 23.0251C17.4217 23.0251 17.0768 23.37 17.0768 23.7941Z" stroke="#C28005" stroke-width="0.2"/>
    <path fill-rule="evenodd" clip-rule="evenodd" d="M23.2286 21.1261C23.1615 21.2578 23.1615 21.4089 23.2286 21.5406L23.8505 22.7613C24.1967 23.4411 23.9224 24.2513 23.2259 24.6058L21.975 25.2427C21.8401 25.3114 21.7475 25.4336 21.7211 25.578L21.4764 26.9163C21.3402 27.6615 20.6222 28.1623 19.8413 28.0563L18.4391 27.866C18.2879 27.8456 18.1382 27.8922 18.0284 27.9941L17.0106 28.9388C16.7273 29.2018 16.3636 29.3333 16 29.3333C15.6364 29.3334 15.2728 29.2019 14.9894 28.9388L13.9717 27.9941C13.8618 27.8922 13.7121 27.8454 13.5609 27.866L12.1588 28.0563C12.0888 28.0658 12.0191 28.0704 11.9505 28.0704C11.2538 28.0705 10.6476 27.5947 10.5236 26.9164L10.2789 25.578C10.2525 25.4336 10.16 25.3114 10.025 25.2427L8.7741 24.6058C8.07761 24.2512 7.80326 23.4411 8.14952 22.7614L8.77143 21.5406C8.83852 21.409 8.83852 21.2579 8.77143 21.1262L8.14955 19.9054C7.80329 19.2257 8.07764 18.4155 8.77413 18.061L10.0251 17.4241C10.16 17.3554 10.2525 17.2332 10.2789 17.0888L10.5236 15.7505C10.6598 15.0053 11.3779 14.5045 12.1587 14.6105L13.5609 14.8008C13.7122 14.8213 13.8618 14.7747 13.9716 14.6727L14.9894 13.7279C15.5561 13.2018 16.4439 13.2018 17.0106 13.7279L18.0284 14.6726C18.1382 14.7745 18.2878 14.8212 18.4391 14.8007L19.8413 14.6104C20.6218 14.5044 21.3402 15.0052 21.4764 15.7504L21.7211 17.0888C21.7475 17.2331 21.84 17.3553 21.975 17.424L23.2259 18.0609C23.9224 18.4155 24.1967 19.2256 23.8505 19.9053L23.2286 21.1261ZM21.5242 24.4275L22.7751 23.7906C23.0108 23.6707 23.1036 23.3965 22.9864 23.1665L22.3645 21.9458C22.1663 21.5565 22.1663 21.1101 22.3645 20.7208L22.9864 19.5001C23.1036 19.2701 23.0108 18.996 22.7751 18.8761L21.5242 18.2392C21.1253 18.0362 20.8518 17.675 20.7738 17.2482L20.5291 15.9098C20.4831 15.6577 20.2399 15.4883 19.9759 15.5242L18.5738 15.7145C18.1267 15.7752 17.6842 15.6372 17.3596 15.3359L16.3419 14.3912C16.1501 14.2133 15.8497 14.2133 15.658 14.3912L14.6402 15.3359C14.3157 15.6371 13.8731 15.7752 13.4261 15.7145L12.024 15.5242C11.7597 15.4883 11.5168 15.6577 11.4707 15.9098L11.2261 17.2482C11.1481 17.6749 10.8745 18.0361 10.4757 18.2392L9.2248 18.8761C8.98914 18.996 8.89633 19.2701 9.01347 19.5001L9.63538 20.7209C9.83365 21.1101 9.83365 21.5566 9.63538 21.9458L9.01347 23.1666C8.89633 23.3965 8.98914 23.6706 9.2248 23.7906L10.4757 24.4275C10.8746 24.6305 11.1481 24.9917 11.2261 25.4184L11.4708 26.7568C11.5169 27.009 11.76 27.1783 12.024 27.1425L13.4262 26.9522C13.4954 26.9428 13.5645 26.9382 13.6331 26.9382C14.0075 26.9382 14.366 27.0761 14.6403 27.3307L15.6581 28.2755C15.8498 28.4534 16.1502 28.4534 16.3419 28.2755L17.3597 27.3308C17.6842 27.0295 18.1267 26.8915 18.5738 26.9522L19.976 27.1425C20.2402 27.1783 20.4831 27.009 20.5292 26.7569L20.7739 25.4185C20.8519 24.9918 21.1254 24.6306 21.5242 24.4275Z" stroke="#C28005" stroke-width="0.2"/>
    <path d="M5.4652 7.55H7.9752V8.7H5.4652V7.55ZM12.8787 5.71C12.8787 6.05 12.8154 6.39333 12.6887 6.74C12.5687 7.08667 12.412 7.42667 12.2187 7.76C12.032 8.09333 11.822 8.41667 11.5887 8.73C11.362 9.03667 11.1387 9.32 10.9187 9.58L10.3887 9.99V10.04L11.1087 9.9H13.0287V11H8.81871V10.33C8.97871 10.1633 9.15871 9.97 9.35871 9.75C9.55871 9.52333 9.75871 9.28667 9.95871 9.04C10.1654 8.78667 10.3654 8.52667 10.5587 8.26C10.752 7.99333 10.9254 7.72667 11.0787 7.46C11.232 7.18667 11.352 6.92333 11.4387 6.67C11.532 6.41667 11.5787 6.17667 11.5787 5.95C11.5787 5.67667 11.4987 5.45333 11.3387 5.28C11.1854 5.1 10.9387 5.01 10.5987 5.01C10.3854 5.01 10.1654 5.05667 9.93871 5.15C9.71871 5.23667 9.53205 5.35 9.37871 5.49L8.85871 4.57C9.11871 4.35667 9.41205 4.18667 9.73871 4.06C10.072 3.92667 10.462 3.86 10.9087 3.86C11.1954 3.86 11.4587 3.9 11.6987 3.98C11.9387 4.06 12.1454 4.17667 12.3187 4.33C12.492 4.48333 12.6287 4.67667 12.7287 4.91C12.8287 5.13667 12.8787 5.40333 12.8787 5.71ZM15.6025 9.99C16.0425 9.99 16.3792 9.88333 16.6125 9.67C16.8459 9.45667 16.9625 9.16333 16.9625 8.79C16.9625 8.39 16.8259 8.09667 16.5525 7.91C16.2792 7.72333 15.8892 7.63 15.3825 7.63L14.5925 7.66V4H18.0325V5.22H15.7125V6.57L16.1225 6.53C16.4492 6.54333 16.7425 6.60333 17.0025 6.71C17.2692 6.81667 17.4959 6.96667 17.6825 7.16C17.8692 7.34667 18.0125 7.57667 18.1125 7.85C18.2125 8.11667 18.2625 8.41667 18.2625 8.75C18.2625 9.14333 18.1959 9.49 18.0625 9.79C17.9292 10.09 17.7425 10.34 17.5025 10.54C17.2692 10.74 16.9925 10.89 16.6725 10.99C16.3525 11.09 16.0025 11.14 15.6225 11.14C15.3225 11.14 15.0359 11.1133 14.7625 11.06C14.4959 11.0133 14.2692 10.9467 14.0825 10.86L14.4325 9.78C14.5859 9.84667 14.7525 9.9 14.9325 9.94C15.1192 9.97333 15.3425 9.99 15.6025 9.99ZM19.1864 5.58C19.1864 5.28 19.2297 5.02333 19.3164 4.81C19.403 4.59667 19.523 4.42 19.6764 4.28C19.8297 4.14 20.013 4.04 20.2264 3.98C20.4464 3.91333 20.683 3.88 20.9364 3.88C21.1897 3.88 21.423 3.91 21.6364 3.97C21.8497 4.03 22.033 4.12667 22.1864 4.26C22.3464 4.39333 22.4697 4.57 22.5564 4.79C22.643 5.00333 22.6897 5.26667 22.6964 5.58C22.6897 5.89333 22.643 6.16 22.5564 6.38C22.4697 6.59333 22.3464 6.76667 22.1864 6.9C22.033 7.03333 21.8497 7.13 21.6364 7.19C21.423 7.25 21.1897 7.28 20.9364 7.28C20.683 7.28 20.4464 7.25 20.2264 7.19C20.013 7.13 19.8297 7.03333 19.6764 6.9C19.523 6.76667 19.403 6.59333 19.3164 6.38C19.2297 6.16 19.1864 5.89333 19.1864 5.58ZM20.3464 5.58C20.3464 6.15333 20.543 6.44 20.9364 6.44C21.143 6.44 21.2897 6.38 21.3764 6.26C21.4697 6.13333 21.5197 5.90667 21.5264 5.58C21.5197 5.26 21.4697 5.03667 21.3764 4.91C21.2897 4.78333 21.143 4.72 20.9364 4.72C20.7297 4.72 20.5797 4.78333 20.4864 4.91C20.393 5.03667 20.3464 5.26 20.3464 5.58ZM23.2464 9.29C23.2464 8.99 23.2897 8.73333 23.3764 8.52C23.463 8.30667 23.583 8.13 23.7364 7.99C23.8897 7.85 24.073 7.75 24.2864 7.69C24.5064 7.62333 24.743 7.59 24.9964 7.59C25.2497 7.59 25.483 7.62 25.6964 7.68C25.9097 7.74 26.093 7.83667 26.2464 7.97C26.4064 8.10333 26.5297 8.28 26.6164 8.5C26.703 8.71333 26.7497 8.97667 26.7564 9.29C26.7497 9.60333 26.703 9.87 26.6164 10.09C26.5297 10.3033 26.4064 10.4767 26.2464 10.61C26.093 10.7433 25.9097 10.84 25.6964 10.9C25.483 10.96 25.2497 10.99 24.9964 10.99C24.743 10.99 24.5064 10.96 24.2864 10.9C24.073 10.84 23.8897 10.7433 23.7364 10.61C23.583 10.4767 23.463 10.3033 23.3764 10.09C23.2897 9.87 23.2464 9.60333 23.2464 9.29ZM24.4064 9.29C24.4064 9.86333 24.603 10.15 24.9964 10.15C25.203 10.15 25.3497 10.09 25.4364 9.97C25.5297 9.84333 25.5797 9.61667 25.5864 9.29C25.5797 8.97 25.5297 8.74667 25.4364 8.62C25.3497 8.49333 25.203 8.43 24.9964 8.43C24.7897 8.43 24.6397 8.49333 24.5464 8.62C24.453 8.74667 24.4064 8.97 24.4064 9.29ZM25.4464 3.86L26.1764 4.52L20.4164 11.14L19.6864 10.45L25.4464 3.86Z"/>
    <path d="M5.4652 7.55V7.5H5.4152V7.55H5.4652ZM7.9752 7.55H8.0252V7.5H7.9752V7.55ZM7.9752 8.7V8.75H8.0252V8.7H7.9752ZM5.4652 8.7H5.4152V8.75H5.4652V8.7ZM5.4652 7.6H7.9752V7.5H5.4652V7.6ZM7.9252 7.55V8.7H8.0252V7.55H7.9252ZM7.9752 8.65H5.4652V8.75H7.9752V8.65ZM5.5152 8.7V7.55H5.4152V8.7H5.5152ZM12.6887 6.74L12.6417 6.72284L12.6415 6.72364L12.6887 6.74ZM12.2187 7.76L12.1755 7.73491L12.1751 7.73557L12.2187 7.76ZM11.5887 8.73L11.5486 8.70014L11.5485 8.70028L11.5887 8.73ZM10.9187 9.58L10.95 9.62044L10.9569 9.6123L10.9187 9.58ZM10.3887 9.99L10.3581 9.95045L10.3387 9.96546V9.99H10.3887ZM10.3887 10.04H10.3387V10.1007L10.3983 10.0891L10.3887 10.04ZM11.1087 9.9V9.84906L11.0992 9.85092L11.1087 9.9ZM13.0287 9.9H13.0787V9.85H13.0287V9.9ZM13.0287 11V11.05H13.0787V11H13.0287ZM8.81871 11H8.76871V11.05H8.81871V11ZM8.81871 10.33L8.78264 10.2954L8.76871 10.3099V10.33H8.81871ZM9.35871 9.75L9.39571 9.78364L9.3962 9.78308L9.35871 9.75ZM9.95871 9.04L9.91997 9.00839L9.91987 9.00851L9.95871 9.04ZM10.5587 8.26L10.5182 8.23065L10.5587 8.26ZM11.0787 7.46L11.1221 7.48492L11.1223 7.48446L11.0787 7.46ZM11.4387 6.67L11.3918 6.65271L11.3914 6.65382L11.4387 6.67ZM11.3387 5.28L11.3006 5.31245L11.302 5.31391L11.3387 5.28ZM9.93871 5.15L9.95704 5.19653L9.95775 5.19623L9.93871 5.15ZM9.37871 5.49L9.33518 5.5146L9.36607 5.56925L9.41243 5.52692L9.37871 5.49ZM8.85871 4.57L8.827 4.53135L8.7945 4.55801L8.81518 4.5946L8.85871 4.57ZM9.73871 4.06L9.75679 4.10662L9.75728 4.10642L9.73871 4.06ZM11.6987 3.98L11.6829 4.02743L11.6987 3.98ZM12.3187 4.33L12.3518 4.29255L12.3187 4.33ZM12.7287 4.91L12.6828 4.9297L12.683 4.93018L12.7287 4.91ZM12.8287 5.71C12.8287 6.04366 12.7666 6.3812 12.6417 6.72284L12.7357 6.75716C12.8642 6.40547 12.9287 6.05633 12.9287 5.71H12.8287ZM12.6415 6.72364C12.5226 7.06713 12.3673 7.40422 12.1755 7.73491L12.262 7.78509C12.4568 7.44912 12.6149 7.1062 12.736 6.75636L12.6415 6.72364ZM12.1751 7.73557C11.9895 8.06698 11.7807 8.3885 11.5486 8.70014L11.6288 8.75986C11.8634 8.44484 12.0746 8.11969 12.2623 7.78443L12.1751 7.73557ZM11.5485 8.70028C11.3224 9.00617 11.0998 9.28863 10.8805 9.5477L10.9569 9.6123C11.1777 9.35137 11.4017 9.06716 11.6289 8.75972L11.5485 8.70028ZM10.8881 9.54045L10.3581 9.95045L10.4193 10.0295L10.9493 9.61955L10.8881 9.54045ZM10.3387 9.99V10.04H10.4387V9.99H10.3387ZM10.3983 10.0891L11.1183 9.94908L11.0992 9.85092L10.3792 9.99092L10.3983 10.0891ZM11.1087 9.95H13.0287V9.85H11.1087V9.95ZM12.9787 9.9V11H13.0787V9.9H12.9787ZM13.0287 10.95H8.81871V11.05H13.0287V10.95ZM8.86871 11V10.33H8.76871V11H8.86871ZM8.85478 10.3646C9.01517 10.1976 9.19549 10.0039 9.39571 9.78363L9.32171 9.71637C9.12194 9.93612 8.94226 10.1291 8.78264 10.2954L8.85478 10.3646ZM9.3962 9.78308C9.59669 9.55587 9.79713 9.31867 9.99755 9.07149L9.91987 9.00851C9.72029 9.25466 9.52074 9.4908 9.32122 9.71692L9.3962 9.78308ZM9.99745 9.07161C10.2047 8.81753 10.4053 8.55678 10.5992 8.28935L10.5182 8.23065C10.3255 8.49655 10.126 8.7558 9.91997 9.00839L9.99745 9.07161ZM10.5992 8.28935C10.7935 8.02136 10.9678 7.75322 11.1221 7.48492L11.0354 7.43508C10.883 7.70012 10.7106 7.96531 10.5182 8.23065L10.5992 8.28935ZM11.1223 7.48446C11.2769 7.20892 11.3982 6.94282 11.486 6.68618L11.3914 6.65382C11.3059 6.90385 11.1872 7.16441 11.0351 7.43554L11.1223 7.48446ZM11.4856 6.68728C11.5806 6.42945 11.6287 6.18357 11.6287 5.95H11.5287C11.5287 6.16976 11.4835 6.40388 11.3918 6.65271L11.4856 6.68728ZM11.6287 5.95C11.6287 5.66623 11.5453 5.43011 11.3755 5.24609L11.302 5.31391C11.4521 5.47656 11.5287 5.6871 11.5287 5.95H11.6287ZM11.3768 5.24758C11.2104 5.05222 10.9467 4.96 10.5987 4.96V5.06C10.9307 5.06 11.1604 5.14778 11.3006 5.31242L11.3768 5.24758ZM10.5987 4.96C10.3779 4.96 10.1515 5.00831 9.91967 5.10377L9.95775 5.19623C10.1793 5.10502 10.3928 5.06 10.5987 5.06V4.96ZM9.92039 5.10348C9.69549 5.19207 9.50341 5.30844 9.345 5.45308L9.41243 5.52692C9.56068 5.39156 9.74193 5.28126 9.95704 5.19652L9.92039 5.10348ZM9.42224 5.4654L8.90224 4.5454L8.81518 4.5946L9.33518 5.5146L9.42224 5.4654ZM8.89043 4.60865C9.14616 4.39882 9.43485 4.23145 9.75679 4.10662L9.72064 4.01338C9.38924 4.14188 9.09126 4.31451 8.827 4.53135L8.89043 4.60865ZM9.75728 4.10642C10.0835 3.97595 10.4669 3.91 10.9087 3.91V3.81C10.4572 3.81 10.0606 3.87738 9.72014 4.01358L9.75728 4.10642ZM10.9087 3.91C11.1907 3.91 11.4486 3.94934 11.6829 4.02743L11.7145 3.93257C11.4688 3.85066 11.2 3.81 10.9087 3.81V3.91ZM11.6829 4.02743C11.9171 4.1055 12.1177 4.21898 12.2856 4.36745L12.3518 4.29255C12.173 4.13436 11.9603 4.01449 11.7145 3.93257L11.6829 4.02743ZM12.2856 4.36745C12.4529 4.51543 12.5854 4.70249 12.6828 4.9297L12.7747 4.8903C12.672 4.65084 12.5312 4.45124 12.3518 4.29255L12.2856 4.36745ZM12.683 4.93018C12.7796 5.14917 12.8287 5.40868 12.8287 5.71H12.9287C12.9287 5.39799 12.8778 5.12416 12.7745 4.88982L12.683 4.93018ZM16.6125 9.67L16.6463 9.7069L16.6125 9.67ZM16.5525 7.91L16.5807 7.86871V7.86871L16.5525 7.91ZM15.3825 7.63V7.57996L15.3806 7.58004L15.3825 7.63ZM14.5925 7.66H14.5425V7.71193L14.5944 7.70996L14.5925 7.66ZM14.5925 4V3.95H14.5425V4H14.5925ZM18.0325 4H18.0825V3.95H18.0325V4ZM18.0325 5.22V5.27H18.0825V5.22H18.0325ZM15.7125 5.22V5.17H15.6625V5.22H15.7125ZM15.7125 6.57H15.6625V6.62512L15.7174 6.61976L15.7125 6.57ZM16.1225 6.53L16.1246 6.47956L16.1177 6.48024L16.1225 6.53ZM17.0025 6.71L16.9836 6.75626L16.984 6.75642L17.0025 6.71ZM17.6825 7.16L17.6466 7.19474L17.6472 7.19536L17.6825 7.16ZM18.1125 7.85L18.0656 7.86718L18.0657 7.86756L18.1125 7.85ZM17.5025 10.54L17.4705 10.5016L17.47 10.502L17.5025 10.54ZM16.6725 10.99L16.6875 11.0377L16.6725 10.99ZM14.7625 11.06L14.7721 11.0109L14.7712 11.0107L14.7625 11.06ZM14.0825 10.86L14.035 10.8446L14.0213 10.8867L14.0615 10.9054L14.0825 10.86ZM14.4325 9.78L14.4525 9.73415L14.402 9.71218L14.385 9.76459L14.4325 9.78ZM14.9325 9.94L14.9217 9.98885L14.9237 9.98922L14.9325 9.94ZM15.6025 10.04C16.0501 10.04 16.4007 9.93147 16.6463 9.7069L16.5788 9.6331C16.3578 9.83519 16.035 9.94 15.6025 9.94V10.04ZM16.6463 9.7069C16.8919 9.48238 17.0125 9.1746 17.0125 8.79H16.9125C16.9125 9.15207 16.7999 9.43096 16.5788 9.6331L16.6463 9.7069ZM17.0125 8.79C17.0125 8.37741 16.8707 8.06671 16.5807 7.86871L16.5243 7.95129C16.7811 8.12662 16.9125 8.40259 16.9125 8.79H17.0125ZM16.5807 7.86871C16.2958 7.67409 15.8943 7.58 15.3825 7.58V7.68C15.8841 7.68 16.2627 7.77257 16.5243 7.95129L16.5807 7.86871ZM15.3806 7.58004L14.5906 7.61004L14.5944 7.70996L15.3844 7.67996L15.3806 7.58004ZM14.6425 7.66V4H14.5425V7.66H14.6425ZM14.5925 4.05H18.0325V3.95H14.5925V4.05ZM17.9825 4V5.22H18.0825V4H17.9825ZM18.0325 5.17H15.7125V5.27H18.0325V5.17ZM15.6625 5.22V6.57H15.7625V5.22H15.6625ZM15.7174 6.61976L16.1274 6.57976L16.1177 6.48024L15.7077 6.52024L15.7174 6.61976ZM16.1205 6.57996C16.4423 6.59309 16.7297 6.65213 16.9836 6.75626L17.0215 6.66374C16.7553 6.55454 16.4561 6.49357 16.1246 6.48004L16.1205 6.57996ZM16.984 6.75642C17.2445 6.86065 17.4651 7.00682 17.6466 7.19473L17.7185 7.12527C17.5266 6.92651 17.2939 6.77268 17.0211 6.66358L16.984 6.75642ZM17.6472 7.19536C17.8282 7.37637 17.9678 7.59997 18.0656 7.86718L18.1595 7.83282C18.0573 7.55336 17.9102 7.31696 17.7179 7.12464L17.6472 7.19536ZM18.0657 7.86756C18.1633 8.12774 18.2125 8.42166 18.2125 8.75H18.3125C18.3125 8.41167 18.2618 8.10559 18.1594 7.83244L18.0657 7.86756ZM18.2125 8.75C18.2125 9.1377 18.1468 9.47722 18.0168 9.76969L18.1082 9.81031C18.2449 9.50278 18.3125 9.14897 18.3125 8.75H18.2125ZM18.0168 9.76969C17.8865 10.0631 17.7043 10.3067 17.4705 10.5016L17.5345 10.5784C17.7807 10.3733 17.9719 10.1169 18.1082 9.81031L18.0168 9.76969ZM17.47 10.502C17.2423 10.6972 16.9717 10.8441 16.6576 10.9423L16.6875 11.0377C17.0133 10.9359 17.2961 10.7828 17.5351 10.578L17.47 10.502ZM16.6576 10.9423C16.343 11.0406 15.9981 11.09 15.6225 11.09V11.19C16.0069 11.19 16.362 11.1394 16.6875 11.0377L16.6576 10.9423ZM15.6225 11.09C15.3255 11.09 15.0421 11.0636 14.7721 11.0109L14.753 11.1091C15.0297 11.1631 15.3196 11.19 15.6225 11.19V11.09ZM14.7712 11.0107C14.5075 10.9646 14.2853 10.899 14.1036 10.8146L14.0615 10.9054C14.2531 10.9943 14.4842 11.0621 14.7539 11.1093L14.7712 11.0107ZM14.1301 10.8754L14.4801 9.79541L14.385 9.76459L14.035 10.8446L14.1301 10.8754ZM14.4126 9.82585C14.5691 9.89392 14.7389 9.94819 14.9217 9.98881L14.9434 9.89119C14.7662 9.85181 14.6026 9.79942 14.4525 9.73415L14.4126 9.82585ZM14.9237 9.98922C15.1142 10.0232 15.3406 10.04 15.6025 10.04V9.94C15.3445 9.94 15.1243 9.92344 14.9413 9.89078L14.9237 9.98922ZM19.3164 4.81L19.27 4.79118L19.3164 4.81ZM19.6764 4.28L19.6427 4.24308L19.6764 4.28ZM20.2264 3.98L20.2399 4.02814L20.2409 4.02785L20.2264 3.98ZM22.1864 4.26L22.1536 4.29774L22.1544 4.29841L22.1864 4.26ZM22.5564 4.79L22.5098 4.80833L22.51 4.80882L22.5564 4.79ZM22.6964 5.58L22.7464 5.58106L22.7464 5.57894L22.6964 5.58ZM22.5564 6.38L22.6027 6.39882L22.6029 6.39833L22.5564 6.38ZM22.1864 6.9L22.1544 6.86158L22.1536 6.86227L22.1864 6.9ZM20.2264 7.19L20.2128 7.23813L20.2132 7.23824L20.2264 7.19ZM19.6764 6.9L19.7092 6.86227L19.6764 6.9ZM19.3164 6.38L19.2698 6.39833L19.27 6.39882L19.3164 6.38ZM21.3764 6.26L21.3361 6.23034L21.3358 6.23073L21.3764 6.26ZM21.5264 5.58L21.5764 5.58102L21.5764 5.57896L21.5264 5.58ZM21.3764 4.91L21.3351 4.93825L21.3361 4.93966L21.3764 4.91ZM23.3764 8.52L23.4227 8.53882L23.3764 8.52ZM23.7364 7.99L23.7027 7.95308L23.7364 7.99ZM24.2864 7.69L24.2999 7.73814L24.3009 7.73785L24.2864 7.69ZM26.2464 7.97L26.2136 8.00774L26.2144 8.00841L26.2464 7.97ZM26.6164 8.5L26.5698 8.51833L26.57 8.51882L26.6164 8.5ZM26.7564 9.29L26.8064 9.29106L26.8064 9.28894L26.7564 9.29ZM26.6164 10.09L26.6627 10.1088L26.6629 10.1083L26.6164 10.09ZM26.2464 10.61L26.2144 10.5716L26.2136 10.5723L26.2464 10.61ZM25.6964 10.9L25.6828 10.8519L25.6964 10.9ZM24.2864 10.9L24.2728 10.9481L24.2732 10.9482L24.2864 10.9ZM23.7364 10.61L23.7692 10.5723L23.7364 10.61ZM23.3764 10.09L23.3298 10.1083L23.33 10.1088L23.3764 10.09ZM25.4364 9.97L25.3961 9.94034L25.3958 9.94073L25.4364 9.97ZM25.5864 9.29L25.6364 9.29102L25.6364 9.28896L25.5864 9.29ZM25.4364 8.62L25.3951 8.64825L25.3961 8.64966L25.4364 8.62ZM24.5464 8.62L24.5061 8.59034L24.5464 8.62ZM25.4464 3.86L25.4799 3.82291L25.4422 3.78881L25.4087 3.82709L25.4464 3.86ZM26.1764 4.52L26.2141 4.55282L26.2463 4.51581L26.2099 4.48291L26.1764 4.52ZM20.4164 11.14L20.382 11.1763L20.4199 11.2121L20.4541 11.1728L20.4164 11.14ZM19.6864 10.45L19.6487 10.4171L19.6171 10.4533L19.652 10.4863L19.6864 10.45ZM19.2364 5.58C19.2364 5.28459 19.2791 5.03466 19.3627 4.82882L19.27 4.79118C19.1803 5.012 19.1364 5.27541 19.1364 5.58H19.2364ZM19.3627 4.82882C19.4469 4.62162 19.5628 4.45138 19.7101 4.31692L19.6427 4.24308C19.4832 4.38862 19.3592 4.57171 19.27 4.79118L19.3627 4.82882ZM19.7101 4.31692C19.8573 4.18253 20.0336 4.08617 20.2399 4.02813L20.2128 3.93187C19.9925 3.99383 19.8021 4.09747 19.6427 4.24308L19.7101 4.31692ZM20.2409 4.02785C20.4557 3.96275 20.6875 3.93 20.9364 3.93V3.83C20.6786 3.83 20.437 3.86392 20.2119 3.93215L20.2409 4.02785ZM20.9364 3.93C21.1858 3.93 21.4145 3.95953 21.6228 4.01813L21.6499 3.92187C21.4316 3.86047 21.1936 3.83 20.9364 3.83V3.93ZM21.6228 4.01813C21.8297 4.07632 22.0063 4.16967 22.1536 4.29773L22.2192 4.22227C22.0598 4.08366 21.8697 3.98368 21.6499 3.92187L21.6228 4.01813ZM22.1544 4.29841C22.3071 4.42568 22.4258 4.59506 22.5098 4.80833L22.6029 4.77167C22.5136 4.54494 22.3857 4.36098 22.2184 4.22159L22.1544 4.29841ZM22.51 4.80882C22.5938 5.01487 22.6398 5.27177 22.6464 5.58106L22.7464 5.57894C22.7396 5.26157 22.6923 4.99179 22.6027 4.77118L22.51 4.80882ZM22.6464 5.57894C22.6398 5.88817 22.5938 6.14864 22.5098 6.36167L22.6029 6.39833C22.6923 6.17136 22.7396 5.8985 22.7464 5.58106L22.6464 5.57894ZM22.51 6.36118C22.4261 6.56773 22.3074 6.73405 22.1544 6.86159L22.2184 6.93841C22.3853 6.79928 22.5133 6.61894 22.6027 6.39882L22.51 6.36118ZM22.1536 6.86227C22.0063 6.99033 21.8297 7.08368 21.6228 7.14187L21.6499 7.23813C21.8697 7.17632 22.0598 7.07634 22.2192 6.93773L22.1536 6.86227ZM21.6228 7.14187C21.4145 7.20047 21.1858 7.23 20.9364 7.23V7.33C21.1936 7.33 21.4316 7.29953 21.6499 7.23813L21.6228 7.14187ZM20.9364 7.23C20.687 7.23 20.4548 7.20047 20.2395 7.14176L20.2132 7.23824C20.4379 7.29953 20.6791 7.33 20.9364 7.33V7.23ZM20.2399 7.14187C20.033 7.08368 19.8564 6.99033 19.7092 6.86227L19.6436 6.93773C19.803 7.07634 19.993 7.17632 20.2128 7.23813L20.2399 7.14187ZM19.7092 6.86227C19.5625 6.73474 19.4468 6.56821 19.3627 6.36118L19.27 6.39882C19.3593 6.61845 19.4836 6.79859 19.6436 6.93773L19.7092 6.86227ZM19.3629 6.36167C19.2791 6.14907 19.2364 5.88899 19.2364 5.58H19.1364C19.1364 5.89768 19.1803 6.17093 19.2698 6.39833L19.3629 6.36167ZM20.2964 5.58C20.2964 5.87083 20.346 6.0978 20.4526 6.25329C20.5616 6.41216 20.7257 6.49 20.9364 6.49V6.39C20.7537 6.39 20.6228 6.3245 20.5351 6.19671C20.4451 6.06553 20.3964 5.8625 20.3964 5.58H20.2964ZM20.9364 6.49C21.1523 6.49 21.3174 6.42698 21.4169 6.28927L21.3358 6.23073C21.262 6.33302 21.1338 6.39 20.9364 6.39V6.49ZM21.4166 6.28966C21.5199 6.14955 21.5697 5.90894 21.5764 5.58102L21.4764 5.57898C21.4697 5.90439 21.4195 6.11712 21.3361 6.23034L21.4166 6.28966ZM21.5764 5.57896C21.5697 5.25743 21.5198 5.02034 21.4166 4.88034L21.3361 4.93966C21.4196 5.053 21.4697 5.26256 21.4764 5.58104L21.5764 5.57896ZM21.4176 4.88177C21.3186 4.737 21.1533 4.67 20.9364 4.67V4.77C21.1328 4.77 21.2608 4.82966 21.3351 4.93823L21.4176 4.88177ZM20.9364 4.67C20.7193 4.67 20.5517 4.73705 20.4461 4.88034L20.5266 4.93966C20.6077 4.82961 20.7401 4.77 20.9364 4.77V4.67ZM20.4461 4.88034C20.3426 5.02082 20.2964 5.25846 20.2964 5.58H20.3964C20.3964 5.26154 20.4435 5.05251 20.5266 4.93966L20.4461 4.88034ZM23.2964 9.29C23.2964 8.99459 23.3391 8.74467 23.4227 8.53882L23.33 8.50118C23.2403 8.722 23.1964 8.98541 23.1964 9.29H23.2964ZM23.4227 8.53882C23.5069 8.33162 23.6228 8.16138 23.7701 8.02692L23.7027 7.95308C23.5432 8.09862 23.4192 8.28171 23.33 8.50118L23.4227 8.53882ZM23.7701 8.02692C23.9173 7.89253 24.0936 7.79617 24.2999 7.73813L24.2728 7.64187C24.0525 7.70383 23.8621 7.80747 23.7027 7.95308L23.7701 8.02692ZM24.3009 7.73785C24.5157 7.67275 24.7475 7.64 24.9964 7.64V7.54C24.7386 7.54 24.497 7.57392 24.2719 7.64215L24.3009 7.73785ZM24.9964 7.64C25.2458 7.64 25.4745 7.66953 25.6828 7.72813L25.7099 7.63187C25.4916 7.57047 25.2536 7.54 24.9964 7.54V7.64ZM25.6828 7.72813C25.8897 7.78632 26.0663 7.87967 26.2136 8.00773L26.2792 7.93227C26.1198 7.79366 25.9297 7.69368 25.7099 7.63187L25.6828 7.72813ZM26.2144 8.00841C26.3671 8.13568 26.4858 8.30506 26.5698 8.51833L26.6629 8.48167C26.5736 8.25494 26.4457 8.07098 26.2784 7.93159L26.2144 8.00841ZM26.57 8.51882C26.6538 8.72487 26.6998 8.98177 26.7064 9.29106L26.8064 9.28894C26.7996 8.97157 26.7523 8.70179 26.6627 8.48118L26.57 8.51882ZM26.7064 9.28894C26.6998 9.59817 26.6538 9.85864 26.5698 10.0717L26.6629 10.1083C26.7523 9.88136 26.7996 9.6085 26.8064 9.29106L26.7064 9.28894ZM26.57 10.0712C26.4861 10.2777 26.3674 10.444 26.2144 10.5716L26.2784 10.6484C26.4453 10.5093 26.5733 10.3289 26.6627 10.1088L26.57 10.0712ZM26.2136 10.5723C26.0663 10.7003 25.8897 10.7937 25.6828 10.8519L25.7099 10.9481C25.9297 10.8863 26.1198 10.7863 26.2792 10.6477L26.2136 10.5723ZM25.6828 10.8519C25.4745 10.9105 25.2458 10.94 24.9964 10.94V11.04C25.2536 11.04 25.4916 11.0095 25.7099 10.9481L25.6828 10.8519ZM24.9964 10.94C24.747 10.94 24.5148 10.9105 24.2995 10.8518L24.2732 10.9482C24.4979 11.0095 24.7391 11.04 24.9964 11.04V10.94ZM24.2999 10.8519C24.093 10.7937 23.9164 10.7003 23.7692 10.5723L23.7036 10.6477C23.863 10.7863 24.053 10.8863 24.2728 10.9481L24.2999 10.8519ZM23.7692 10.5723C23.6225 10.4447 23.5068 10.2782 23.4227 10.0712L23.33 10.1088C23.4193 10.3285 23.5436 10.5086 23.7036 10.6477L23.7692 10.5723ZM23.4229 10.0717C23.3391 9.85907 23.2964 9.59899 23.2964 9.29H23.1964C23.1964 9.60768 23.2403 9.88093 23.3298 10.1083L23.4229 10.0717ZM24.3564 9.29C24.3564 9.58083 24.406 9.8078 24.5126 9.96329C24.6216 10.1222 24.7857 10.2 24.9964 10.2V10.1C24.8137 10.1 24.6828 10.0345 24.5951 9.90671C24.5051 9.77553 24.4564 9.5725 24.4564 9.29H24.3564ZM24.9964 10.2C25.2123 10.2 25.3774 10.137 25.4769 9.99927L25.3958 9.94073C25.322 10.043 25.1938 10.1 24.9964 10.1V10.2ZM25.4766 9.99966C25.5799 9.85955 25.6297 9.61894 25.6364 9.29102L25.5364 9.28898C25.5297 9.61439 25.4795 9.82712 25.3961 9.94034L25.4766 9.99966ZM25.6364 9.28896C25.6297 8.96743 25.5798 8.73034 25.4766 8.59034L25.3961 8.64966C25.4796 8.763 25.5297 8.97257 25.5364 9.29104L25.6364 9.28896ZM25.4776 8.59177C25.3786 8.447 25.2133 8.38 24.9964 8.38V8.48C25.1928 8.48 25.3208 8.53966 25.3951 8.64823L25.4776 8.59177ZM24.9964 8.38C24.7793 8.38 24.6117 8.44705 24.5061 8.59034L24.5866 8.64966C24.6677 8.53961 24.8001 8.48 24.9964 8.48V8.38ZM24.5061 8.59034C24.4026 8.73082 24.3564 8.96846 24.3564 9.29H24.4564C24.4564 8.97154 24.5035 8.76251 24.5866 8.64966L24.5061 8.59034ZM25.4128 3.89709L26.1428 4.55709L26.2099 4.48291L25.4799 3.82291L25.4128 3.89709ZM26.1386 4.48718L20.3786 11.1072L20.4541 11.1728L26.2141 4.55282L26.1386 4.48718ZM20.4507 11.1037L19.7207 10.4137L19.652 10.4863L20.382 11.1763L20.4507 11.1037ZM19.724 10.4829L25.484 3.8929L25.4087 3.82709L19.6487 10.4171L19.724 10.4829Z"/>
  </symbol>

  <symbol id="search" viewBox="0 0 33 32">
    <path d="M13.2889 4.80005C12.0859 4.79969 10.9004 5.08792 9.83195 5.64055C8.76346 6.19317 7.84313 6.99407 7.14823 7.976C6.45333 8.95793 6.00414 10.0922 5.83836 11.2837C5.67258 12.4752 5.79505 13.689 6.19549 14.8234C6.59593 15.9577 7.26266 16.9794 8.1397 17.8027C9.01675 18.6261 10.0785 19.227 11.2359 19.555C12.3932 19.8831 13.6124 19.9287 14.791 19.688C15.9696 19.4474 17.0733 18.9275 18.0094 18.172L26.8032 26.9657C26.8774 27.04 26.9656 27.0989 27.0627 27.1392C27.1598 27.1794 27.2638 27.2 27.3688 27.2C27.4739 27.2 27.5779 27.1794 27.675 27.1392C27.7721 27.0989 27.8603 27.04 27.9345 26.9657C28.0088 26.8914 28.0678 26.8032 28.108 26.7062C28.1482 26.6091 28.1689 26.5051 28.1689 26.4C28.1689 26.295 28.1482 26.191 28.108 26.0939C28.0678 25.9968 28.0088 25.9086 27.9345 25.8343L19.1408 17.0406C20.0322 15.9363 20.5928 14.6023 20.7578 13.1928C20.9229 11.7833 20.6856 10.3559 20.0735 9.07557C19.4614 7.79524 18.4995 6.71428 17.2988 5.95768C16.0982 5.20109 14.708 4.79974 13.2889 4.80005ZM17.4749 16.5061C16.5064 17.4745 15.2322 18.0771 13.8692 18.2113C12.5062 18.3455 11.1389 18.003 10.0002 17.2421C8.86142 16.4811 8.02176 15.3489 7.62422 14.0383C7.22668 12.7277 7.29588 11.3199 7.82 10.0546C8.34413 8.78926 9.29077 7.74484 10.4986 7.09925C11.7065 6.45366 13.1008 6.24684 14.444 6.51404C15.7873 6.78124 16.9963 7.50592 17.8652 8.56461C18.734 9.6233 19.2089 10.9505 19.2089 12.32C19.21 13.0976 19.0575 13.8678 18.7599 14.5862C18.4623 15.3046 18.0256 15.9571 17.4749 16.5061Z"/>
  </symbol>

  <symbol id="user" viewBox="0 0 32 32">
    <path fill-rule="evenodd" clip-rule="evenodd" d="M14.8255 4.08032C14.0177 4.25961 13.1119 4.66132 12.4436 5.13658C11.9049 5.51972 10.9362 6.55067 10.6415 7.05452C10.0248 8.10892 9.8494 8.81433 9.84915 10.2407C9.8489 11.501 9.94684 11.9819 10.3987 12.9395C10.7571 13.6987 11.0512 14.1171 11.7336 14.8381L12.3082 15.4451L11.9883 15.7689C11.7419 16.0185 11.5399 16.1473 11.1073 16.3304C10.466 16.602 9.47455 17.1821 8.88588 17.6303C8.29666 18.0789 7.36395 19.0475 6.92643 19.6651C6.24347 20.6292 5.66539 21.8999 5.36478 23.0979C5.08514 24.2123 4.91123 26.0588 5.04715 26.4706C5.18944 26.9019 5.65821 27.1057 6.06431 26.9131C6.42778 26.7406 6.51414 26.5243 6.55955 25.6728C6.73748 22.3358 8.12343 19.8479 10.7052 18.2308C12.0394 17.3951 13.6036 16.9609 15.5679 16.881C18.5062 16.7615 21.0101 17.6593 22.839 19.4881C24.4746 21.1238 25.2854 23.0766 25.4575 25.7946C25.5077 26.5865 25.5097 26.5946 25.7034 26.7677C26.0551 27.0818 26.3628 27.0776 26.7319 26.7536C27.0185 26.5019 27.048 26.3029 26.9597 25.217C26.73 22.3902 25.6978 20.0976 23.8496 18.3085C22.957 17.4446 21.5964 16.5397 20.7342 16.2367C20.5379 16.1677 20.1553 15.9996 19.8841 15.8633L19.3909 15.6153L20.1028 14.8881C21.527 13.4332 22.1024 12.2082 22.1708 10.4855C22.1964 9.84033 22.1802 9.5297 22.1003 9.13536C21.8516 7.90798 21.3501 6.95188 20.4695 6.0266C19.4201 4.92388 18.457 4.35841 17.157 4.08181C16.6474 3.97341 15.311 3.97255 14.8255 4.08032ZM16.8283 5.62811C18.6414 5.975 20.0929 7.36547 20.5241 9.16833C20.6946 9.88148 20.6645 10.9706 20.4558 11.6327C19.9262 13.3129 18.623 14.5132 16.9908 14.8237C16.4433 14.9279 15.384 14.9163 14.8484 14.8003C12.665 14.3277 11.3579 12.6104 11.362 10.2198C11.3643 8.88529 11.7928 7.78307 12.6421 6.92757C13.7201 5.84168 15.331 5.34167 16.8283 5.62811Z"/>
  </symbol>
</svg>