<svg width="27" height="26" viewBox="0 0 27 26" fill="none" xmlns="http://www.w3.org/2000/svg">
<path d="M8.18078 22.1715H19.2592C20.1691 22.1714 21.0417 21.8009 21.6851 21.1414C22.3285 20.482 22.6899 19.5876 22.69 18.6549V9.24625C22.69 9.06955 22.6215 8.90009 22.4996 8.77514C22.3777 8.65019 22.2124 8.58 22.04 8.58H19.05V6.59191C19.0499 5.7056 18.7064 4.85561 18.095 4.22889C17.4836 3.60218 16.6543 3.25006 15.7896 3.25H11.6504C10.7857 3.25006 9.95645 3.60218 9.34502 4.22889C8.73359 4.85561 8.39006 5.7056 8.39 6.59191V8.58H5.4C5.22761 8.58 5.06228 8.65019 4.94038 8.77514C4.81848 8.90009 4.75 9.06955 4.75 9.24625V18.6549C4.75007 19.5876 5.11155 20.482 5.75493 21.1414C6.39831 21.8009 7.2709 22.1714 8.18078 22.1715ZM9.69 6.59191C9.69001 6.05898 9.89655 5.54789 10.2642 5.17105C10.6318 4.79421 11.1305 4.58251 11.6504 4.5825H15.7896C16.3095 4.58251 16.8082 4.79421 17.1758 5.17105C17.5435 5.54789 17.75 6.05898 17.75 6.59191V8.58H9.69V6.59191ZM6.05 9.9125H8.39V11.9113C8.39 12.088 8.45848 12.2574 8.58038 12.3824C8.70228 12.5073 8.86761 12.5775 9.04 12.5775C9.21239 12.5775 9.37772 12.5073 9.49962 12.3824C9.62152 12.2574 9.69 12.088 9.69 11.9113V9.9125H17.75V11.9113C17.75 12.088 17.8185 12.2574 17.9404 12.3824C18.0623 12.5073 18.2276 12.5775 18.4 12.5775C18.5724 12.5775 18.7377 12.5073 18.8596 12.3824C18.9815 12.2574 19.05 12.088 19.05 11.9113V9.9125H21.39V18.6549C21.39 19.2342 21.1655 19.7897 20.7659 20.1993C20.3663 20.6089 19.8243 20.839 19.2592 20.839H8.18078C7.61567 20.839 7.0737 20.6089 6.6741 20.1993C6.2745 19.7897 6.05001 19.2342 6.05 18.6549V9.9125Z" fill="#071A33" stroke="#F7F7F7" stroke-width="0.3"/>
</svg>
