<svg width="32" height="32" viewBox="0 0 32 32" fill="none" xmlns="http://www.w3.org/2000/svg">
<path d="M9.2225 27.288H22.8575C23.9774 27.2879 25.0513 26.8319 25.8432 26.0202C26.635 25.2086 27.0799 24.1078 27.08 22.9599V11.38C27.08 11.1625 26.9957 10.954 26.8457 10.8002C26.6957 10.6464 26.4922 10.56 26.28 10.56H22.6V8.11312C22.5999 7.02228 22.1771 5.97613 21.4246 5.20479C20.6721 4.43345 19.6514 4.00008 18.5872 4H13.4928C12.4286 4.00008 11.4079 4.43345 10.6554 5.20479C9.90288 5.97613 9.48008 7.02228 9.48 8.11312V10.56H5.8C5.58783 10.56 5.38434 10.6464 5.23431 10.8002C5.08429 10.954 5 11.1625 5 11.38V22.9599C5.00009 24.1078 5.44498 25.2086 6.23684 26.0202C7.02869 26.8319 8.10265 27.2879 9.2225 27.288ZM11.08 8.11312C11.08 7.45721 11.3342 6.82817 11.7867 6.36437C12.2392 5.90057 12.8529 5.64001 13.4928 5.64H18.5872C19.2271 5.64001 19.8408 5.90057 20.2933 6.36437C20.7458 6.82817 21 7.45721 21 8.11312V10.56H11.08V8.11312ZM6.6 12.2H9.48V14.66C9.48 14.8775 9.56429 15.086 9.71431 15.2398C9.86434 15.3936 10.0678 15.48 10.28 15.48C10.4922 15.48 10.6957 15.3936 10.8457 15.2398C10.9957 15.086 11.08 14.8775 11.08 14.66V12.2H21V14.66C21 14.8775 21.0843 15.086 21.2343 15.2398C21.3843 15.3936 21.5878 15.48 21.8 15.48C22.0122 15.48 22.2157 15.3936 22.3657 15.2398C22.5157 15.086 22.6 14.8775 22.6 14.66V12.2H25.48V22.9599C25.48 23.6729 25.2037 24.3566 24.7119 24.8607C24.2201 25.3648 23.553 25.648 22.8575 25.648H9.2225C8.52697 25.648 7.85994 25.3648 7.36812 24.8607C6.87631 24.3566 6.60001 23.6729 6.6 22.9599V12.2Z" fill="#071A33" stroke="#F7F7F7" stroke-width="0.3"/>
</svg>
