<svg width="32" height="32" viewBox="0 0 32 32" fill="none" xmlns="http://www.w3.org/2000/svg">
<path d="M5 8C5 8.55228 5.44772 9 6 9H26C26.5523 9 27 8.55228 27 8C27 7.44772 26.5523 7 26 7H6C5.44772 7 5 7.44772 5 8Z" fill="#071A33"/>
<path d="M16 16C16 16.5523 16.4477 17 17 17H26C26.5523 17 27 16.5523 27 16C27 15.4477 26.5523 15 26 15H17C16.4477 15 16 15.4477 16 16Z" fill="#071A33"/>
<path d="M5 24C5 24.5523 5.44772 25 6 25H26C26.5523 25 27 24.5523 27 24C27 23.4477 26.5523 23 26 23H6C5.44772 23 5 23.4477 5 24Z" fill="#071A33"/>
</svg>
