<svg width="26" height="26" viewBox="0 0 26 26" fill="none" xmlns="http://www.w3.org/2000/svg">
<path d="M8.125 6.90625C8.125 7.57935 7.57935 8.125 6.90625 8.125C6.23315 8.125 5.6875 7.57935 5.6875 6.90625C5.6875 6.23315 6.23315 5.6875 6.90625 5.6875C7.57935 5.6875 8.125 6.23315 8.125 6.90625Z" fill="#071A33"/>
<path d="M21.125 6.90625C21.125 7.57935 20.5793 8.125 19.9062 8.125C19.2332 8.125 18.6875 7.57935 18.6875 6.90625C18.6875 6.23315 19.2332 5.6875 19.9062 5.6875C20.5793 5.6875 21.125 6.23315 21.125 6.90625Z" fill="#071A33"/>
<path d="M14.625 6.90625C14.625 7.57935 14.0793 8.125 13.4062 8.125C12.7332 8.125 12.1875 7.57935 12.1875 6.90625C12.1875 6.23315 12.7332 5.6875 13.4062 5.6875C14.0793 5.6875 14.625 6.23315 14.625 6.90625Z" fill="#071A33"/>
<path d="M8.125 13.4062C8.125 14.0793 7.57935 14.625 6.90625 14.625C6.23315 14.625 5.6875 14.0793 5.6875 13.4062C5.6875 12.7332 6.23315 12.1875 6.90625 12.1875C7.57935 12.1875 8.125 12.7332 8.125 13.4062Z" fill="#071A33"/>
<path d="M21.125 13.4062C21.125 14.0793 20.5793 14.625 19.9062 14.625C19.2332 14.625 18.6875 14.0793 18.6875 13.4062C18.6875 12.7332 19.2332 12.1875 19.9062 12.1875C20.5793 12.1875 21.125 12.7332 21.125 13.4062Z" fill="#071A33"/>
<path d="M14.625 13.4062C14.625 14.0793 14.0793 14.625 13.4062 14.625C12.7332 14.625 12.1875 14.0793 12.1875 13.4062C12.1875 12.7332 12.7332 12.1875 13.4062 12.1875C14.0793 12.1875 14.625 12.7332 14.625 13.4062Z" fill="#071A33"/>
<path d="M8.125 19.9062C8.125 20.5793 7.57935 21.125 6.90625 21.125C6.23315 21.125 5.6875 20.5793 5.6875 19.9062C5.6875 19.2332 6.23315 18.6875 6.90625 18.6875C7.57935 18.6875 8.125 19.2332 8.125 19.9062Z" fill="#071A33"/>
<path d="M21.125 19.9062C21.125 20.5793 20.5793 21.125 19.9062 21.125C19.2332 21.125 18.6875 20.5793 18.6875 19.9062C18.6875 19.2332 19.2332 18.6875 19.9062 18.6875C20.5793 18.6875 21.125 19.2332 21.125 19.9062Z" fill="#071A33"/>
<path d="M14.625 19.9062C14.625 20.5793 14.0793 21.125 13.4062 21.125C12.7332 21.125 12.1875 20.5793 12.1875 19.9062C12.1875 19.2332 12.7332 18.6875 13.4062 18.6875C14.0793 18.6875 14.625 19.2332 14.625 19.9062Z" fill="#071A33"/>
</svg>
