<svg width="32" height="32" viewBox="0 0 32 32" fill="none" xmlns="http://www.w3.org/2000/svg">
<path fill-rule="evenodd" clip-rule="evenodd" d="M19.9774 4.08467C19.7468 4.19049 13.3663 10.5055 13.1561 10.8361C13.0095 11.0664 12.9759 11.3817 13.0707 11.6372C13.1365 11.8144 19.6843 18.3785 19.9157 18.4993C20.2988 18.699 20.7989 18.5659 21.0412 18.1996L21.1727 18.0007L21.1865 16.3827L21.2002 14.7647L25.0353 14.7519C29.3925 14.7374 29.109 14.7644 29.3789 14.3384L29.5159 14.1221V11.3055C29.5159 8.93951 29.5048 8.46734 29.4466 8.35473C29.346 8.1598 29.0678 7.93209 28.8598 7.87427C28.7409 7.84125 27.4011 7.82397 24.9379 7.82383L21.1966 7.82354L21.1955 6.2801C21.1946 4.8819 21.1862 4.71866 21.1062 4.54522C20.9994 4.31353 20.848 4.16771 20.6118 4.06893C20.3814 3.97254 20.2127 3.97675 19.9774 4.08467ZM24.2332 8.97215H28.4162V11.2933V13.6145H24.2327H20.0491V15.3732V17.132L17.1446 14.2247L14.2401 11.3173L17.1327 8.42163L20.0252 5.52599L20.0377 7.24905L20.0503 8.97215H24.2332ZM10.7974 13.5027C10.5759 13.6199 10.4808 13.7175 10.3854 13.9255C10.3059 14.0987 10.2974 14.2661 10.2965 15.6843L10.2954 17.2517H6.46853C2.7419 17.2517 2.63676 17.2542 2.45508 17.347C2.35247 17.3994 2.20808 17.5215 2.13426 17.6185L2 17.7946V20.7013V23.608L2.14463 23.7869C2.45316 24.1685 2.14932 24.1434 6.45772 24.1434H10.2954L10.2965 25.7108C10.2974 27.1279 10.3059 27.2967 10.3853 27.4715C10.5953 27.9345 11.1346 28.1322 11.5718 27.9066C11.7666 27.8061 18.281 21.314 18.378 21.1238C18.4803 20.923 18.4996 20.5883 18.4211 20.3776C18.3571 20.2062 11.7591 13.5914 11.5557 13.4948C11.3604 13.4021 10.9803 13.406 10.7974 13.5027ZM14.3475 23.6049L11.4429 26.5123V24.7777V23.0432L7.2713 23.0309L3.09968 23.0187V20.6975V18.3764L7.2713 18.3642L11.4429 18.3519V16.6174V14.8828L14.3475 17.7902L17.252 20.6975L14.3475 23.6049Z" fill="#071A33"/>
</svg>
