<svg width="26" height="27" viewBox="0 0 26 27" fill="none" xmlns="http://www.w3.org/2000/svg">
<path d="M8.9688 11.9971C8.86563 12.0402 8.7983 12.1406 8.7983 12.2521L8.7983 15.2753L1.9009 15.2753C1.74861 15.2753 1.625 15.3989 1.625 15.5512L1.625 19.9656C1.625 20.1179 1.74861 20.2415 1.90091 20.2415L8.79833 20.2415L8.79833 23.2763C8.79833 23.3878 8.86565 23.4882 8.96829 23.5313C9.07147 23.5738 9.19011 23.5506 9.26902 23.4717L14.7914 17.9675C14.8432 17.9157 14.8725 17.8456 14.8725 17.7722C14.8725 17.6988 14.8432 17.6287 14.7919 17.5769L9.26957 12.0567C9.19063 11.9778 9.07201 11.9541 8.9688 11.9971Z" stroke="#071A33" stroke-width="1.2"/>
<path d="M17.0312 3.9151C17.1344 3.95814 17.2017 4.05857 17.2017 4.17003L17.2017 7.19329L24.0991 7.19329C24.2514 7.19329 24.375 7.3169 24.375 7.4692L24.375 11.8836C24.375 12.0358 24.2514 12.1595 24.0991 12.1595L17.2017 12.1595L17.2017 15.1943C17.2017 15.3058 17.1343 15.4062 17.0317 15.4492C16.9285 15.4917 16.8099 15.4686 16.731 15.3896L11.2086 9.88551C11.1568 9.83365 11.1275 9.76355 11.1275 9.69017C11.1275 9.61679 11.1568 9.5467 11.2081 9.49484L16.7304 3.97469C16.8094 3.89578 16.928 3.87206 17.0312 3.9151Z" stroke="#071A33" stroke-width="1.2"/>
</svg>
