<svg width="20" height="20" viewBox="0 0 20 20" fill="none" xmlns="http://www.w3.org/2000/svg">
<path d="M7.01027 0.900147C6.03288 0.899854 5.06968 1.13404 4.20153 1.58305C3.33338 2.03206 2.58562 2.68279 2.02101 3.48061C1.4564 4.27842 1.09143 5.20005 0.956738 6.16812C0.822041 7.13618 0.92155 8.12243 1.24691 9.04408C1.57227 9.96573 2.11399 10.7959 2.82658 11.4648C3.53918 12.1338 4.40186 12.622 5.34221 12.8886C6.28255 13.1551 7.27312 13.1922 8.23076 12.9966C9.18839 12.8011 10.0851 12.3787 10.8457 11.7649L17.9906 18.9098C18.051 18.9701 18.1227 19.018 18.2015 19.0507C18.2804 19.0833 18.3649 19.1001 18.4503 19.1001C18.5356 19.1001 18.6201 19.0833 18.699 19.0507C18.7779 19.018 18.8495 18.9701 18.9099 18.9098C18.9703 18.8494 19.0181 18.7778 19.0508 18.6989C19.0835 18.62 19.1003 18.5355 19.1003 18.4501C19.1003 18.3648 19.0835 18.2803 19.0508 18.2014C19.0181 18.1225 18.9703 18.0509 18.9099 17.9905L11.765 10.8456C12.4892 9.94838 12.9447 8.8645 13.0788 7.71929C13.2129 6.57407 13.0202 5.41428 12.5228 4.37401C12.0255 3.33374 11.2439 2.45546 10.2684 1.84073C9.29288 1.22599 8.16331 0.899896 7.01027 0.900147ZM10.4114 10.4113C9.62454 11.1981 8.5892 11.6878 7.48179 11.7968C6.37437 11.9058 5.26341 11.6275 4.3382 11.0093C3.41298 10.391 2.73075 9.47112 2.40775 8.40626C2.08476 7.3414 2.14097 6.19749 2.56683 5.16944C2.99268 4.14138 3.76182 3.29279 4.7432 2.76825C5.72458 2.2437 6.85748 2.07567 7.94886 2.29277C9.04024 2.50987 10.0226 3.09867 10.7285 3.95885C11.4344 4.81904 11.8203 5.89738 11.8203 7.01015C11.8212 7.64195 11.6973 8.2677 11.4555 8.8514C11.2137 9.43511 10.8589 9.96523 10.4114 10.4113Z" fill="#071A33"/>
</svg>
