<svg width="27" height="26" viewBox="0 0 27 26" fill="none" xmlns="http://www.w3.org/2000/svg">
<path d="M9.59357 12.6298C9.57827 12.6358 9.56299 12.6418 9.54773 12.6478C9.56082 12.6426 9.57392 12.6375 9.58704 12.6324L9.59357 12.6298Z" fill="#071A33"/>
<path fill-rule="evenodd" clip-rule="evenodd" d="M16.8891 4.81535L16.8963 4.82312L16.904 4.83036C17.8494 5.71548 18.4596 7.01203 18.4596 8.44733C18.4596 9.88093 17.8504 11.1819 16.8964 12.1438L16.8864 12.1539L16.8855 12.1548L16.8143 12.2266L16.795 12.2461L16.7229 12.3187L16.4096 12.6346L16.9618 12.9129H17.0449C19.9214 14.1089 22.25 16.8847 22.25 21.0669C22.25 21.5552 21.8114 21.9375 21.394 21.9375C20.9167 21.9375 20.538 21.5666 20.538 21.0669C20.538 17.6316 18.6768 15.4411 16.3587 14.461L16.3042 14.4379H16.2275C15.2759 14.0767 14.3254 13.9331 13.3125 13.9331C12.2839 13.9331 11.2452 14.0811 10.2744 14.4576L10.2693 14.4597C7.8732 15.4412 6.08696 17.6356 6.08696 21.0669C6.08696 21.5552 5.64832 21.9375 5.23098 21.9375C4.75366 21.9375 4.375 21.5666 4.375 21.0669C4.375 16.7865 6.66068 14.077 9.69988 12.893L9.75713 12.8707L10.0676 12.5577L9.65706 12.1438C8.70979 11.1887 8.16545 9.89008 8.16545 8.44733C8.16545 7.00241 8.71109 5.70922 9.64961 4.8305L9.65706 4.82298C10.6111 3.86101 11.898 3.25 13.3125 3.25C14.7286 3.25 16.0111 3.86194 16.8891 4.81535ZM15.7361 6.01432C15.1142 5.38726 14.2547 4.99128 13.3125 4.99128C12.3022 4.99128 11.4419 5.38466 10.8174 6.01432C10.1842 6.65273 9.87741 7.52122 9.87741 8.44733C9.87741 9.4422 10.1822 10.312 10.8174 10.9525C11.4534 11.5938 12.3199 11.9034 13.3125 11.9034C14.2371 11.9034 15.1022 11.5916 15.7361 10.9525C16.3604 10.323 16.7476 9.45901 16.7476 8.44733C16.7476 7.50444 16.3579 6.64132 15.7361 6.01432Z" fill="#071A33"/>
<path d="M17.1029 12.6298C17.1305 12.6411 17.158 12.6524 17.1855 12.664M9.54773 12.6478C9.56299 12.6418 9.57827 12.6358 9.59357 12.6298L9.58704 12.6324C9.57392 12.6375 9.56082 12.6426 9.54773 12.6478ZM16.8963 4.82312L16.8891 4.81535C16.0111 3.86194 14.7286 3.25 13.3125 3.25C11.898 3.25 10.6111 3.86101 9.65706 4.82298L9.64961 4.8305C8.71109 5.70922 8.16545 7.00241 8.16545 8.44733C8.16545 9.89008 8.70979 11.1887 9.65706 12.1438L10.0676 12.5577L9.75713 12.8707L9.69988 12.893C6.66068 14.077 4.375 16.7865 4.375 21.0669C4.375 21.5666 4.75366 21.9375 5.23098 21.9375C5.64832 21.9375 6.08696 21.5552 6.08696 21.0669C6.08696 17.6356 7.8732 15.4412 10.2693 14.4597L10.2744 14.4576C11.2452 14.0811 12.2839 13.9331 13.3125 13.9331C14.3254 13.9331 15.2759 14.0767 16.2275 14.4379H16.3042L16.3587 14.461C18.6768 15.4411 20.538 17.6316 20.538 21.0669C20.538 21.5666 20.9167 21.9375 21.394 21.9375C21.8114 21.9375 22.25 21.5552 22.25 21.0669C22.25 16.8847 19.9214 14.1089 17.0449 12.9129H16.9618L16.4097 12.6346L16.7229 12.3187L16.795 12.2461L16.8143 12.2266L16.8855 12.1548L16.8864 12.1539L16.8964 12.1438C17.8504 11.1819 18.4596 9.88093 18.4596 8.44733C18.4596 7.01203 17.8494 5.71548 16.904 4.83036L16.8963 4.82312ZM13.3125 4.99128C14.2547 4.99128 15.1142 5.38726 15.7361 6.01432C16.3579 6.64132 16.7476 7.50444 16.7476 8.44733C16.7476 9.45901 16.3604 10.323 15.7361 10.9525C15.1022 11.5916 14.2371 11.9034 13.3125 11.9034C12.3199 11.9034 11.4534 11.5938 10.8174 10.9525C10.1822 10.312 9.87741 9.4422 9.87741 8.44733C9.87741 7.52122 10.1842 6.65273 10.8174 6.01432C11.4419 5.38466 12.3022 4.99128 13.3125 4.99128Z" stroke="#F7F7F7" stroke-width="0.6"/>
</svg>
