<svg width="32" height="32" viewBox="0 0 32 32" fill="none" xmlns="http://www.w3.org/2000/svg">
<path fill-rule="evenodd" clip-rule="evenodd" d="M14.8255 4.08032C14.0177 4.25961 13.1119 4.66132 12.4436 5.13658C11.9049 5.51972 10.9362 6.55067 10.6415 7.05452C10.0248 8.10892 9.8494 8.81433 9.84915 10.2407C9.8489 11.501 9.94684 11.9819 10.3987 12.9395C10.7571 13.6987 11.0512 14.1171 11.7336 14.8381L12.3082 15.4451L11.9883 15.7689C11.7419 16.0185 11.5399 16.1473 11.1073 16.3304C10.466 16.602 9.47455 17.1821 8.88588 17.6303C8.29666 18.0789 7.36395 19.0475 6.92643 19.6651C6.24347 20.6292 5.66539 21.8999 5.36478 23.0979C5.08514 24.2123 4.91123 26.0588 5.04715 26.4706C5.18944 26.9019 5.65821 27.1057 6.06431 26.9131C6.42778 26.7406 6.51414 26.5243 6.55955 25.6728C6.73748 22.3358 8.12343 19.8479 10.7052 18.2308C12.0394 17.3951 13.6036 16.9609 15.5679 16.881C18.5062 16.7615 21.0101 17.6593 22.839 19.4881C24.4746 21.1238 25.2854 23.0766 25.4575 25.7946C25.5077 26.5865 25.5097 26.5946 25.7034 26.7677C26.0551 27.0818 26.3628 27.0776 26.7319 26.7536C27.0185 26.5019 27.048 26.3029 26.9597 25.217C26.73 22.3902 25.6978 20.0976 23.8496 18.3085C22.957 17.4446 21.5964 16.5397 20.7342 16.2367C20.5379 16.1677 20.1553 15.9996 19.8841 15.8633L19.3909 15.6153L20.1028 14.8881C21.527 13.4332 22.1024 12.2082 22.1708 10.4855C22.1964 9.84033 22.1802 9.5297 22.1003 9.13536C21.8516 7.90798 21.3501 6.95188 20.4695 6.0266C19.4201 4.92388 18.457 4.35841 17.157 4.08181C16.6474 3.97341 15.311 3.97255 14.8255 4.08032ZM16.8283 5.62811C18.6414 5.975 20.0929 7.36547 20.5241 9.16833C20.6946 9.88148 20.6645 10.9706 20.4558 11.6327C19.9262 13.3129 18.623 14.5132 16.9908 14.8237C16.4433 14.9279 15.384 14.9163 14.8484 14.8003C12.665 14.3277 11.3579 12.6104 11.362 10.2198C11.3643 8.88529 11.7928 7.78307 12.6421 6.92757C13.7201 5.84168 15.331 5.34167 16.8283 5.62811Z" fill="#071A33"/>
</svg>
