<svg width="90" height="28" viewBox="0 0 90 28" fill="none" xmlns="http://www.w3.org/2000/svg">
<path d="M76.073 27.8563H13.9188C10.2239 27.8563 6.6804 26.3889 4.06774 23.7768C1.45508 21.1648 -0.0126953 17.6221 -0.0126953 13.9282C-0.0126953 10.2342 1.45508 6.6915 4.06774 4.07946C6.6804 1.46743 10.2239 0 13.9188 0L76.073 0C79.7678 0 83.3113 1.46743 85.924 4.07946C88.5367 6.6915 90.0044 10.2342 90.0044 13.9282C90.0044 17.6221 88.5367 21.1648 85.924 23.7768C83.3113 26.3889 79.7678 27.8563 76.073 27.8563ZM13.9188 3.23263C11.1648 3.35586 8.56456 4.53631 6.65935 6.52822C4.75414 8.52013 3.69084 11.17 3.69084 13.926C3.69084 16.6821 4.75414 19.3319 6.65935 21.3238C8.56456 23.3157 11.1648 24.4962 13.9188 24.6194H76.073C78.8362 24.5088 81.4495 23.3336 83.3654 21.3399C85.2814 19.3462 86.3514 16.6887 86.3514 13.9239C86.3514 11.1591 85.2814 8.50154 83.3654 6.50783C81.4495 4.51413 78.8362 3.33892 76.073 3.22835L13.9188 3.23263Z" fill="#1A2741"/>
<path d="M16.0232 7.49268H10.1367V9.63349C10.1367 9.63349 10.6421 9.65918 10.6421 10.7253V16.27C10.6421 17.3404 10.1367 17.364 10.1367 17.364V19.5048H15.7706C19.4108 19.5048 19.4108 16.5076 19.4108 16.5076V10.3485C19.4108 10.3485 19.4237 7.49268 16.0232 7.49268ZM15.7213 15.8419C15.7213 17.0086 14.8455 16.9337 14.8455 16.9337H14.3915V10.0617H14.8455C14.8455 10.0617 15.7213 9.98673 15.7213 11.1556V15.8419Z" fill="#1A2741"/>
<path d="M28.1158 13.2238V15.8827H23.619V16.6983C23.619 16.6983 23.5997 17.3663 23.8481 17.5546C23.9687 17.6326 24.1092 17.6741 24.2528 17.6741C24.3964 17.6741 24.537 17.6326 24.6576 17.5546C24.8867 17.3555 24.8717 16.6983 24.8717 16.6983V16.3858H28.1158V18.5715C28.1158 18.5715 26.8096 19.6955 24.2464 19.6955C21.6832 19.6955 20.3428 18.9419 20.3428 16.6041V13.4871C20.3428 13.4871 20.3428 11.5903 21.5483 10.9759C22.7539 10.3615 25.7304 10.4193 26.831 10.9759C28.1158 11.6182 28.1158 13.2152 28.1158 13.2152V13.2238ZM28.0152 8.62744H20.9017V9.56726H28.0152V8.62744ZM24.7753 12.8448C24.7139 12.7769 24.6389 12.7226 24.5552 12.6854C24.4714 12.6483 24.3809 12.6291 24.2892 12.6291C24.1976 12.6291 24.107 12.6483 24.0233 12.6854C23.9396 12.7226 23.8646 12.7769 23.8032 12.8448C23.6062 13.1831 23.6254 13.8382 23.6254 13.8382H24.9531C24.9531 13.8382 24.9723 13.1831 24.7753 12.8448Z" fill="#1A2741"/>
<path d="M34.0258 7.49268V9.6442C33.8845 9.72724 33.7693 9.84838 33.6936 9.99375C33.6179 10.1391 33.5846 10.3029 33.5975 10.4663V16.9401H34.2399C34.2399 16.9401 34.9037 16.9123 34.9037 15.8055V13.6646H38.1821V19.4962H29.4434V17.3404C29.5847 17.2568 29.6998 17.1353 29.7755 16.9896C29.8512 16.8439 29.8845 16.6799 29.8716 16.5162V10.4663C29.8846 10.3029 29.8513 10.1391 29.7756 9.99375C29.6998 9.84838 29.5847 9.72724 29.4434 9.6442V7.49268H34.0258Z" fill="#1A2741"/>
<path d="M42.2911 13.4999C42.2911 13.1659 42.2911 12.62 42.8971 12.62C43.5031 12.62 43.5031 13.1659 43.5031 13.4999V16.6469C43.5031 16.9809 43.5031 17.5289 42.8971 17.5289C42.2911 17.5289 42.2911 16.9809 42.2911 16.6469V13.4999ZM42.8971 10.552C40.8328 10.552 39.0127 10.9074 39.0127 13.6947V16.5549C39.0127 19.3379 40.8328 19.6976 42.8971 19.6976H42.9313C44.9977 19.6976 46.8157 19.3422 46.8157 16.5549V13.7011C46.8157 10.9181 44.9977 10.5584 42.9313 10.5584L42.8971 10.552Z" fill="#1A2741"/>
<path d="M51.7777 19.4964V17.529C51.6364 17.4454 51.5213 17.3239 51.4456 17.1782C51.3699 17.0325 51.3366 16.8685 51.3494 16.7048V13.0996C52.4779 12.5751 52.5764 13.7419 52.5764 13.7419V16.6984C52.5764 18.8991 52.7777 19.5071 52.7777 19.5071H56.2595V17.529C56.153 17.4633 56.0638 17.373 55.9993 17.2657C55.9349 17.1585 55.8971 17.0373 55.8891 16.9124V12.8727C55.8891 11.1387 54.6749 10.4343 53.4501 10.4343C52.6578 10.4653 51.8947 10.7413 51.2659 11.2243V10.6356H47.707V12.7036C47.8484 12.7872 47.9634 12.9087 48.0391 13.0544C48.1148 13.2001 48.1482 13.3641 48.1353 13.5278V16.6984C48.1482 16.862 48.1148 17.026 48.0391 17.1717C47.9634 17.3174 47.8484 17.439 47.707 17.5226V19.49L51.7777 19.4964Z" fill="#1A2741"/>
<path d="M65.0468 19.582C65.0468 23.1164 62.6914 23.1122 61.094 23.1122C59.7966 23.121 58.522 22.7714 57.4109 22.1017V19.9095H60.4216C60.4216 20.3377 60.5094 20.92 61.1454 20.92C61.7813 20.92 61.7663 19.9223 61.7663 19.9223V19.0532C61.7663 19.0532 60.094 20.1578 58.3102 19.3186C57.1561 18.777 57.1582 17.165 57.1582 17.165V13.5256C57.1582 13.5256 57.1582 11.4019 58.3317 10.8389C60.1475 9.96755 61.8498 11.2049 61.8498 11.2049V10.6355H65.4152V12.6543C65.4152 12.6543 65.0468 12.7399 65.0468 13.365V19.582ZM61.7663 13.0739C60.4216 12.4316 60.4216 13.6776 60.4216 13.6776V15.8805C60.4216 17.8543 61.7663 17.0237 61.7663 17.0237V13.0739Z" fill="#1A2741"/>
<path d="M74.6142 16.9123V12.8725C74.6142 11.1385 73.4001 10.4342 72.1774 10.4342C71.4395 10.4618 70.7258 10.7044 70.1239 11.1321V7.49268H66.4258V9.5607C66.5671 9.64429 66.6822 9.76584 66.7579 9.91154C66.8336 10.0572 66.8669 10.2212 66.854 10.3849V16.6982C66.8669 16.8619 66.8336 17.0259 66.7579 17.1716C66.6822 17.3173 66.5671 17.4388 66.4258 17.5224V19.4898H70.4943V17.5288C70.353 17.4452 70.2379 17.3237 70.1622 17.178C70.0865 17.0323 70.0532 16.8683 70.066 16.7046V13.0995C71.1945 12.575 71.293 13.7417 71.293 13.7417V16.6982C71.293 18.8989 71.4943 19.5069 71.4943 19.5069H74.9761V17.5288C74.8712 17.4621 74.7837 17.3714 74.7207 17.2642C74.6578 17.157 74.6213 17.0364 74.6142 16.9123Z" fill="#1A2741"/>
<path d="M79.443 10.6355V16.6982C79.4301 16.8619 79.4634 17.0259 79.5391 17.1716C79.6149 17.3173 79.7299 17.4389 79.8713 17.5225V19.4899H75.8027V17.5289C75.9441 17.4453 76.0591 17.3237 76.1348 17.1781C76.2106 17.0324 76.2439 16.8683 76.231 16.7047V13.5277C76.2439 13.364 76.2106 13.2 76.1348 13.0543C76.0591 12.9086 75.9441 12.7871 75.8027 12.7035V10.6355H79.443ZM77.7171 7.31934C76.7171 7.31934 75.9055 7.96158 75.9055 8.73656C75.9055 9.51153 76.7171 10.1516 77.7171 10.1516C78.7171 10.1516 79.5308 9.50939 79.5308 8.73656C79.5308 7.96372 78.7192 7.31934 77.7171 7.31934Z" fill="#1A2741"/>
</svg>
